%TF.GenerationSoftware,KiCad,Pcbnew,9.0.9-9.0.9~ubuntu24.04.1*%
%TF.CreationDate,2026-08-22T03:09:00+00:00*%
%TF.ProjectId,MI250X_8OAM_PCBWay_Chassis_Stub,4d493235-3058-45f3-984f-414d5f504342,Rev3_8Seat_PCBWay_v1*%
%TF.SameCoordinates,Original*%
%TF.FileFunction,Drillmap*%
%TF.FilePolarity,Positive*%
%FSLAX45Y45*%
G04 Gerber Fmt 4.5, Leading zero omitted, Abs format (unit mm)*
G04 Created by KiCad (PCBNEW 9.0.9-9.0.9~ubuntu24.04.1) date 2026-08-22 03:09:00*
%MOMM*%
%LPD*%
G01*
G04 APERTURE LIST*
%ADD10C,0.200000*%
%ADD11C,0.180000*%
%ADD12C,0.390000*%
%ADD13C,0.660000*%
G04 APERTURE END LIST*
D10*
X0Y0D02*
X49200000Y0D01*
X49200000Y-37200000D01*
X0Y-37200000D01*
X0Y0D01*
D11*
X3910000Y-6060000D02*
X4090000Y-6240000D01*
X4090000Y-6060000D02*
X3910000Y-6240000D01*
X3910000Y-16260000D02*
X4090000Y-16440000D01*
X4090000Y-16260000D02*
X3910000Y-16440000D01*
X3910000Y-22660000D02*
X4090000Y-22840000D01*
X4090000Y-22660000D02*
X3910000Y-22840000D01*
X3910000Y-32860000D02*
X4090000Y-33040000D01*
X4090000Y-32860000D02*
X3910000Y-33040000D01*
X10210000Y-6060000D02*
X10390000Y-6240000D01*
X10390000Y-6060000D02*
X10210000Y-6240000D01*
X10210000Y-16260000D02*
X10390000Y-16440000D01*
X10390000Y-16260000D02*
X10210000Y-16440000D01*
X10210000Y-22660000D02*
X10390000Y-22840000D01*
X10390000Y-22660000D02*
X10210000Y-22840000D01*
X10210000Y-32860000D02*
X10390000Y-33040000D01*
X10390000Y-32860000D02*
X10210000Y-33040000D01*
X14210000Y-6060000D02*
X14390000Y-6240000D01*
X14390000Y-6060000D02*
X14210000Y-6240000D01*
X14210000Y-16260000D02*
X14390000Y-16440000D01*
X14390000Y-16260000D02*
X14210000Y-16440000D01*
X14210000Y-22660000D02*
X14390000Y-22840000D01*
X14390000Y-22660000D02*
X14210000Y-22840000D01*
X14210000Y-32860000D02*
X14390000Y-33040000D01*
X14390000Y-32860000D02*
X14210000Y-33040000D01*
X20510000Y-6060000D02*
X20690000Y-6240000D01*
X20690000Y-6060000D02*
X20510000Y-6240000D01*
X20510000Y-16260000D02*
X20690000Y-16440000D01*
X20690000Y-16260000D02*
X20510000Y-16440000D01*
X20510000Y-22660000D02*
X20690000Y-22840000D01*
X20690000Y-22660000D02*
X20510000Y-22840000D01*
X20510000Y-32860000D02*
X20690000Y-33040000D01*
X20690000Y-32860000D02*
X20510000Y-33040000D01*
X24510000Y-6060000D02*
X24690000Y-6240000D01*
X24690000Y-6060000D02*
X24510000Y-6240000D01*
X24510000Y-16260000D02*
X24690000Y-16440000D01*
X24690000Y-16260000D02*
X24510000Y-16440000D01*
X24510000Y-22660000D02*
X24690000Y-22840000D01*
X24690000Y-22660000D02*
X24510000Y-22840000D01*
X24510000Y-32860000D02*
X24690000Y-33040000D01*
X24690000Y-32860000D02*
X24510000Y-33040000D01*
X30810000Y-6060000D02*
X30990000Y-6240000D01*
X30990000Y-6060000D02*
X30810000Y-6240000D01*
X30810000Y-16260000D02*
X30990000Y-16440000D01*
X30990000Y-16260000D02*
X30810000Y-16440000D01*
X30810000Y-22660000D02*
X30990000Y-22840000D01*
X30990000Y-22660000D02*
X30810000Y-22840000D01*
X30810000Y-32860000D02*
X30990000Y-33040000D01*
X30990000Y-32860000D02*
X30810000Y-33040000D01*
X34810000Y-6060000D02*
X34990000Y-6240000D01*
X34990000Y-6060000D02*
X34810000Y-6240000D01*
X34810000Y-16260000D02*
X34990000Y-16440000D01*
X34990000Y-16260000D02*
X34810000Y-16440000D01*
X34810000Y-22660000D02*
X34990000Y-22840000D01*
X34990000Y-22660000D02*
X34810000Y-22840000D01*
X34810000Y-32860000D02*
X34990000Y-33040000D01*
X34990000Y-32860000D02*
X34810000Y-33040000D01*
X41110000Y-6060000D02*
X41290000Y-6240000D01*
X41290000Y-6060000D02*
X41110000Y-6240000D01*
X41110000Y-16260000D02*
X41290000Y-16440000D01*
X41290000Y-16260000D02*
X41110000Y-16440000D01*
X41110000Y-22660000D02*
X41290000Y-22840000D01*
X41290000Y-22660000D02*
X41110000Y-22840000D01*
X41110000Y-32860000D02*
X41290000Y-33040000D01*
X41290000Y-32860000D02*
X41110000Y-33040000D01*
D12*
X2845000Y-5200000D02*
G75*
G02*
X2455000Y-5200000I-195000J0D01*
G01*
X2455000Y-5200000D02*
G75*
G02*
X2845000Y-5200000I195000J0D01*
G01*
X2845000Y-15400000D02*
G75*
G02*
X2455000Y-15400000I-195000J0D01*
G01*
X2455000Y-15400000D02*
G75*
G02*
X2845000Y-15400000I195000J0D01*
G01*
X2845000Y-21800000D02*
G75*
G02*
X2455000Y-21800000I-195000J0D01*
G01*
X2455000Y-21800000D02*
G75*
G02*
X2845000Y-21800000I195000J0D01*
G01*
X2845000Y-32000000D02*
G75*
G02*
X2455000Y-32000000I-195000J0D01*
G01*
X2455000Y-32000000D02*
G75*
G02*
X2845000Y-32000000I195000J0D01*
G01*
X11845000Y-5200000D02*
G75*
G02*
X11455000Y-5200000I-195000J0D01*
G01*
X11455000Y-5200000D02*
G75*
G02*
X11845000Y-5200000I195000J0D01*
G01*
X11845000Y-15400000D02*
G75*
G02*
X11455000Y-15400000I-195000J0D01*
G01*
X11455000Y-15400000D02*
G75*
G02*
X11845000Y-15400000I195000J0D01*
G01*
X11845000Y-21800000D02*
G75*
G02*
X11455000Y-21800000I-195000J0D01*
G01*
X11455000Y-21800000D02*
G75*
G02*
X11845000Y-21800000I195000J0D01*
G01*
X11845000Y-32000000D02*
G75*
G02*
X11455000Y-32000000I-195000J0D01*
G01*
X11455000Y-32000000D02*
G75*
G02*
X11845000Y-32000000I195000J0D01*
G01*
X13145000Y-5200000D02*
G75*
G02*
X12755000Y-5200000I-195000J0D01*
G01*
X12755000Y-5200000D02*
G75*
G02*
X13145000Y-5200000I195000J0D01*
G01*
X13145000Y-15400000D02*
G75*
G02*
X12755000Y-15400000I-195000J0D01*
G01*
X12755000Y-15400000D02*
G75*
G02*
X13145000Y-15400000I195000J0D01*
G01*
X13145000Y-21800000D02*
G75*
G02*
X12755000Y-21800000I-195000J0D01*
G01*
X12755000Y-21800000D02*
G75*
G02*
X13145000Y-21800000I195000J0D01*
G01*
X13145000Y-32000000D02*
G75*
G02*
X12755000Y-32000000I-195000J0D01*
G01*
X12755000Y-32000000D02*
G75*
G02*
X13145000Y-32000000I195000J0D01*
G01*
X22145000Y-5200000D02*
G75*
G02*
X21755000Y-5200000I-195000J0D01*
G01*
X21755000Y-5200000D02*
G75*
G02*
X22145000Y-5200000I195000J0D01*
G01*
X22145000Y-15400000D02*
G75*
G02*
X21755000Y-15400000I-195000J0D01*
G01*
X21755000Y-15400000D02*
G75*
G02*
X22145000Y-15400000I195000J0D01*
G01*
X22145000Y-21800000D02*
G75*
G02*
X21755000Y-21800000I-195000J0D01*
G01*
X21755000Y-21800000D02*
G75*
G02*
X22145000Y-21800000I195000J0D01*
G01*
X22145000Y-32000000D02*
G75*
G02*
X21755000Y-32000000I-195000J0D01*
G01*
X21755000Y-32000000D02*
G75*
G02*
X22145000Y-32000000I195000J0D01*
G01*
X23445000Y-5200000D02*
G75*
G02*
X23055000Y-5200000I-195000J0D01*
G01*
X23055000Y-5200000D02*
G75*
G02*
X23445000Y-5200000I195000J0D01*
G01*
X23445000Y-15400000D02*
G75*
G02*
X23055000Y-15400000I-195000J0D01*
G01*
X23055000Y-15400000D02*
G75*
G02*
X23445000Y-15400000I195000J0D01*
G01*
X23445000Y-21800000D02*
G75*
G02*
X23055000Y-21800000I-195000J0D01*
G01*
X23055000Y-21800000D02*
G75*
G02*
X23445000Y-21800000I195000J0D01*
G01*
X23445000Y-32000000D02*
G75*
G02*
X23055000Y-32000000I-195000J0D01*
G01*
X23055000Y-32000000D02*
G75*
G02*
X23445000Y-32000000I195000J0D01*
G01*
X32445000Y-5200000D02*
G75*
G02*
X32055000Y-5200000I-195000J0D01*
G01*
X32055000Y-5200000D02*
G75*
G02*
X32445000Y-5200000I195000J0D01*
G01*
X32445000Y-15400000D02*
G75*
G02*
X32055000Y-15400000I-195000J0D01*
G01*
X32055000Y-15400000D02*
G75*
G02*
X32445000Y-15400000I195000J0D01*
G01*
X32445000Y-21800000D02*
G75*
G02*
X32055000Y-21800000I-195000J0D01*
G01*
X32055000Y-21800000D02*
G75*
G02*
X32445000Y-21800000I195000J0D01*
G01*
X32445000Y-32000000D02*
G75*
G02*
X32055000Y-32000000I-195000J0D01*
G01*
X32055000Y-32000000D02*
G75*
G02*
X32445000Y-32000000I195000J0D01*
G01*
X33745000Y-5200000D02*
G75*
G02*
X33355000Y-5200000I-195000J0D01*
G01*
X33355000Y-5200000D02*
G75*
G02*
X33745000Y-5200000I195000J0D01*
G01*
X33745000Y-15400000D02*
G75*
G02*
X33355000Y-15400000I-195000J0D01*
G01*
X33355000Y-15400000D02*
G75*
G02*
X33745000Y-15400000I195000J0D01*
G01*
X33745000Y-21800000D02*
G75*
G02*
X33355000Y-21800000I-195000J0D01*
G01*
X33355000Y-21800000D02*
G75*
G02*
X33745000Y-21800000I195000J0D01*
G01*
X33745000Y-32000000D02*
G75*
G02*
X33355000Y-32000000I-195000J0D01*
G01*
X33355000Y-32000000D02*
G75*
G02*
X33745000Y-32000000I195000J0D01*
G01*
X42745000Y-5200000D02*
G75*
G02*
X42355000Y-5200000I-195000J0D01*
G01*
X42355000Y-5200000D02*
G75*
G02*
X42745000Y-5200000I195000J0D01*
G01*
X42745000Y-15400000D02*
G75*
G02*
X42355000Y-15400000I-195000J0D01*
G01*
X42355000Y-15400000D02*
G75*
G02*
X42745000Y-15400000I195000J0D01*
G01*
X42745000Y-21800000D02*
G75*
G02*
X42355000Y-21800000I-195000J0D01*
G01*
X42355000Y-21800000D02*
G75*
G02*
X42745000Y-21800000I195000J0D01*
G01*
X42745000Y-32000000D02*
G75*
G02*
X42355000Y-32000000I-195000J0D01*
G01*
X42355000Y-32000000D02*
G75*
G02*
X42745000Y-32000000I195000J0D01*
G01*
D13*
X5570000Y-35870000D02*
X5570000Y-36530000D01*
X5240000Y-36200000D02*
X5900000Y-36200000D01*
X8430000Y-35870000D02*
X8430000Y-36530000D01*
X8100000Y-36200000D02*
X8760000Y-36200000D01*
D10*
X250777Y-37521484D02*
X250777Y-37321484D01*
X250777Y-37321484D02*
X298396Y-37321484D01*
X298396Y-37321484D02*
X326967Y-37331008D01*
X326967Y-37331008D02*
X346015Y-37350055D01*
X346015Y-37350055D02*
X355539Y-37369103D01*
X355539Y-37369103D02*
X365062Y-37407198D01*
X365062Y-37407198D02*
X365062Y-37435770D01*
X365062Y-37435770D02*
X355539Y-37473865D01*
X355539Y-37473865D02*
X346015Y-37492912D01*
X346015Y-37492912D02*
X326967Y-37511960D01*
X326967Y-37511960D02*
X298396Y-37521484D01*
X298396Y-37521484D02*
X250777Y-37521484D01*
X450777Y-37521484D02*
X450777Y-37388150D01*
X450777Y-37426246D02*
X460301Y-37407198D01*
X460301Y-37407198D02*
X469824Y-37397674D01*
X469824Y-37397674D02*
X488872Y-37388150D01*
X488872Y-37388150D02*
X507920Y-37388150D01*
X574586Y-37521484D02*
X574586Y-37388150D01*
X574586Y-37321484D02*
X565063Y-37331008D01*
X565063Y-37331008D02*
X574586Y-37340531D01*
X574586Y-37340531D02*
X584110Y-37331008D01*
X584110Y-37331008D02*
X574586Y-37321484D01*
X574586Y-37321484D02*
X574586Y-37340531D01*
X698396Y-37521484D02*
X679348Y-37511960D01*
X679348Y-37511960D02*
X669824Y-37492912D01*
X669824Y-37492912D02*
X669824Y-37321484D01*
X803158Y-37521484D02*
X784110Y-37511960D01*
X784110Y-37511960D02*
X774586Y-37492912D01*
X774586Y-37492912D02*
X774586Y-37321484D01*
X1031729Y-37521484D02*
X1031729Y-37321484D01*
X1031729Y-37321484D02*
X1098396Y-37464341D01*
X1098396Y-37464341D02*
X1165063Y-37321484D01*
X1165063Y-37321484D02*
X1165063Y-37521484D01*
X1346015Y-37521484D02*
X1346015Y-37416722D01*
X1346015Y-37416722D02*
X1336491Y-37397674D01*
X1336491Y-37397674D02*
X1317444Y-37388150D01*
X1317444Y-37388150D02*
X1279348Y-37388150D01*
X1279348Y-37388150D02*
X1260301Y-37397674D01*
X1346015Y-37511960D02*
X1326967Y-37521484D01*
X1326967Y-37521484D02*
X1279348Y-37521484D01*
X1279348Y-37521484D02*
X1260301Y-37511960D01*
X1260301Y-37511960D02*
X1250777Y-37492912D01*
X1250777Y-37492912D02*
X1250777Y-37473865D01*
X1250777Y-37473865D02*
X1260301Y-37454817D01*
X1260301Y-37454817D02*
X1279348Y-37445293D01*
X1279348Y-37445293D02*
X1326967Y-37445293D01*
X1326967Y-37445293D02*
X1346015Y-37435770D01*
X1441253Y-37388150D02*
X1441253Y-37588150D01*
X1441253Y-37397674D02*
X1460301Y-37388150D01*
X1460301Y-37388150D02*
X1498396Y-37388150D01*
X1498396Y-37388150D02*
X1517443Y-37397674D01*
X1517443Y-37397674D02*
X1526967Y-37407198D01*
X1526967Y-37407198D02*
X1536491Y-37426246D01*
X1536491Y-37426246D02*
X1536491Y-37483389D01*
X1536491Y-37483389D02*
X1526967Y-37502436D01*
X1526967Y-37502436D02*
X1517443Y-37511960D01*
X1517443Y-37511960D02*
X1498396Y-37521484D01*
X1498396Y-37521484D02*
X1460301Y-37521484D01*
X1460301Y-37521484D02*
X1441253Y-37511960D01*
X1622205Y-37502436D02*
X1631729Y-37511960D01*
X1631729Y-37511960D02*
X1622205Y-37521484D01*
X1622205Y-37521484D02*
X1612682Y-37511960D01*
X1612682Y-37511960D02*
X1622205Y-37502436D01*
X1622205Y-37502436D02*
X1622205Y-37521484D01*
X1622205Y-37397674D02*
X1631729Y-37407198D01*
X1631729Y-37407198D02*
X1622205Y-37416722D01*
X1622205Y-37416722D02*
X1612682Y-37407198D01*
X1612682Y-37407198D02*
X1622205Y-37397674D01*
X1622205Y-37397674D02*
X1622205Y-37416722D01*
D11*
X-190000Y-37760000D02*
X-10000Y-37940000D01*
X-10000Y-37760000D02*
X-190000Y-37940000D01*
D10*
X355539Y-37941484D02*
X241253Y-37941484D01*
X298396Y-37941484D02*
X298396Y-37741484D01*
X298396Y-37741484D02*
X279348Y-37770055D01*
X279348Y-37770055D02*
X260301Y-37789103D01*
X260301Y-37789103D02*
X241253Y-37798627D01*
X441253Y-37922436D02*
X450777Y-37931960D01*
X450777Y-37931960D02*
X441253Y-37941484D01*
X441253Y-37941484D02*
X431729Y-37931960D01*
X431729Y-37931960D02*
X441253Y-37922436D01*
X441253Y-37922436D02*
X441253Y-37941484D01*
X565063Y-37827198D02*
X546015Y-37817674D01*
X546015Y-37817674D02*
X536491Y-37808150D01*
X536491Y-37808150D02*
X526967Y-37789103D01*
X526967Y-37789103D02*
X526967Y-37779579D01*
X526967Y-37779579D02*
X536491Y-37760531D01*
X536491Y-37760531D02*
X546015Y-37751008D01*
X546015Y-37751008D02*
X565063Y-37741484D01*
X565063Y-37741484D02*
X603158Y-37741484D01*
X603158Y-37741484D02*
X622205Y-37751008D01*
X622205Y-37751008D02*
X631729Y-37760531D01*
X631729Y-37760531D02*
X641253Y-37779579D01*
X641253Y-37779579D02*
X641253Y-37789103D01*
X641253Y-37789103D02*
X631729Y-37808150D01*
X631729Y-37808150D02*
X622205Y-37817674D01*
X622205Y-37817674D02*
X603158Y-37827198D01*
X603158Y-37827198D02*
X565063Y-37827198D01*
X565063Y-37827198D02*
X546015Y-37836722D01*
X546015Y-37836722D02*
X536491Y-37846246D01*
X536491Y-37846246D02*
X526967Y-37865293D01*
X526967Y-37865293D02*
X526967Y-37903389D01*
X526967Y-37903389D02*
X536491Y-37922436D01*
X536491Y-37922436D02*
X546015Y-37931960D01*
X546015Y-37931960D02*
X565063Y-37941484D01*
X565063Y-37941484D02*
X603158Y-37941484D01*
X603158Y-37941484D02*
X622205Y-37931960D01*
X622205Y-37931960D02*
X631729Y-37922436D01*
X631729Y-37922436D02*
X641253Y-37903389D01*
X641253Y-37903389D02*
X641253Y-37865293D01*
X641253Y-37865293D02*
X631729Y-37846246D01*
X631729Y-37846246D02*
X622205Y-37836722D01*
X622205Y-37836722D02*
X603158Y-37827198D01*
X765062Y-37741484D02*
X784110Y-37741484D01*
X784110Y-37741484D02*
X803158Y-37751008D01*
X803158Y-37751008D02*
X812682Y-37760531D01*
X812682Y-37760531D02*
X822205Y-37779579D01*
X822205Y-37779579D02*
X831729Y-37817674D01*
X831729Y-37817674D02*
X831729Y-37865293D01*
X831729Y-37865293D02*
X822205Y-37903389D01*
X822205Y-37903389D02*
X812682Y-37922436D01*
X812682Y-37922436D02*
X803158Y-37931960D01*
X803158Y-37931960D02*
X784110Y-37941484D01*
X784110Y-37941484D02*
X765062Y-37941484D01*
X765062Y-37941484D02*
X746015Y-37931960D01*
X746015Y-37931960D02*
X736491Y-37922436D01*
X736491Y-37922436D02*
X726967Y-37903389D01*
X726967Y-37903389D02*
X717443Y-37865293D01*
X717443Y-37865293D02*
X717443Y-37817674D01*
X717443Y-37817674D02*
X726967Y-37779579D01*
X726967Y-37779579D02*
X736491Y-37760531D01*
X736491Y-37760531D02*
X746015Y-37751008D01*
X746015Y-37751008D02*
X765062Y-37741484D01*
X955539Y-37741484D02*
X974586Y-37741484D01*
X974586Y-37741484D02*
X993634Y-37751008D01*
X993634Y-37751008D02*
X1003158Y-37760531D01*
X1003158Y-37760531D02*
X1012682Y-37779579D01*
X1012682Y-37779579D02*
X1022205Y-37817674D01*
X1022205Y-37817674D02*
X1022205Y-37865293D01*
X1022205Y-37865293D02*
X1012682Y-37903389D01*
X1012682Y-37903389D02*
X1003158Y-37922436D01*
X1003158Y-37922436D02*
X993634Y-37931960D01*
X993634Y-37931960D02*
X974586Y-37941484D01*
X974586Y-37941484D02*
X955539Y-37941484D01*
X955539Y-37941484D02*
X936491Y-37931960D01*
X936491Y-37931960D02*
X926967Y-37922436D01*
X926967Y-37922436D02*
X917443Y-37903389D01*
X917443Y-37903389D02*
X907920Y-37865293D01*
X907920Y-37865293D02*
X907920Y-37817674D01*
X907920Y-37817674D02*
X917443Y-37779579D01*
X917443Y-37779579D02*
X926967Y-37760531D01*
X926967Y-37760531D02*
X936491Y-37751008D01*
X936491Y-37751008D02*
X955539Y-37741484D01*
X1107920Y-37941484D02*
X1107920Y-37808150D01*
X1107920Y-37827198D02*
X1117444Y-37817674D01*
X1117444Y-37817674D02*
X1136491Y-37808150D01*
X1136491Y-37808150D02*
X1165063Y-37808150D01*
X1165063Y-37808150D02*
X1184110Y-37817674D01*
X1184110Y-37817674D02*
X1193634Y-37836722D01*
X1193634Y-37836722D02*
X1193634Y-37941484D01*
X1193634Y-37836722D02*
X1203158Y-37817674D01*
X1203158Y-37817674D02*
X1222205Y-37808150D01*
X1222205Y-37808150D02*
X1250777Y-37808150D01*
X1250777Y-37808150D02*
X1269825Y-37817674D01*
X1269825Y-37817674D02*
X1279348Y-37836722D01*
X1279348Y-37836722D02*
X1279348Y-37941484D01*
X1374586Y-37941484D02*
X1374586Y-37808150D01*
X1374586Y-37827198D02*
X1384110Y-37817674D01*
X1384110Y-37817674D02*
X1403158Y-37808150D01*
X1403158Y-37808150D02*
X1431729Y-37808150D01*
X1431729Y-37808150D02*
X1450777Y-37817674D01*
X1450777Y-37817674D02*
X1460301Y-37836722D01*
X1460301Y-37836722D02*
X1460301Y-37941484D01*
X1460301Y-37836722D02*
X1469824Y-37817674D01*
X1469824Y-37817674D02*
X1488872Y-37808150D01*
X1488872Y-37808150D02*
X1517443Y-37808150D01*
X1517443Y-37808150D02*
X1536491Y-37817674D01*
X1536491Y-37817674D02*
X1546015Y-37836722D01*
X1546015Y-37836722D02*
X1546015Y-37941484D01*
X1936491Y-37731960D02*
X1765063Y-37989103D01*
X2193634Y-37741484D02*
X2212682Y-37741484D01*
X2212682Y-37741484D02*
X2231729Y-37751008D01*
X2231729Y-37751008D02*
X2241253Y-37760531D01*
X2241253Y-37760531D02*
X2250777Y-37779579D01*
X2250777Y-37779579D02*
X2260301Y-37817674D01*
X2260301Y-37817674D02*
X2260301Y-37865293D01*
X2260301Y-37865293D02*
X2250777Y-37903389D01*
X2250777Y-37903389D02*
X2241253Y-37922436D01*
X2241253Y-37922436D02*
X2231729Y-37931960D01*
X2231729Y-37931960D02*
X2212682Y-37941484D01*
X2212682Y-37941484D02*
X2193634Y-37941484D01*
X2193634Y-37941484D02*
X2174587Y-37931960D01*
X2174587Y-37931960D02*
X2165063Y-37922436D01*
X2165063Y-37922436D02*
X2155539Y-37903389D01*
X2155539Y-37903389D02*
X2146015Y-37865293D01*
X2146015Y-37865293D02*
X2146015Y-37817674D01*
X2146015Y-37817674D02*
X2155539Y-37779579D01*
X2155539Y-37779579D02*
X2165063Y-37760531D01*
X2165063Y-37760531D02*
X2174587Y-37751008D01*
X2174587Y-37751008D02*
X2193634Y-37741484D01*
X2346015Y-37922436D02*
X2355539Y-37931960D01*
X2355539Y-37931960D02*
X2346015Y-37941484D01*
X2346015Y-37941484D02*
X2336491Y-37931960D01*
X2336491Y-37931960D02*
X2346015Y-37922436D01*
X2346015Y-37922436D02*
X2346015Y-37941484D01*
X2479348Y-37741484D02*
X2498396Y-37741484D01*
X2498396Y-37741484D02*
X2517444Y-37751008D01*
X2517444Y-37751008D02*
X2526968Y-37760531D01*
X2526968Y-37760531D02*
X2536491Y-37779579D01*
X2536491Y-37779579D02*
X2546015Y-37817674D01*
X2546015Y-37817674D02*
X2546015Y-37865293D01*
X2546015Y-37865293D02*
X2536491Y-37903389D01*
X2536491Y-37903389D02*
X2526968Y-37922436D01*
X2526968Y-37922436D02*
X2517444Y-37931960D01*
X2517444Y-37931960D02*
X2498396Y-37941484D01*
X2498396Y-37941484D02*
X2479348Y-37941484D01*
X2479348Y-37941484D02*
X2460301Y-37931960D01*
X2460301Y-37931960D02*
X2450777Y-37922436D01*
X2450777Y-37922436D02*
X2441253Y-37903389D01*
X2441253Y-37903389D02*
X2431729Y-37865293D01*
X2431729Y-37865293D02*
X2431729Y-37817674D01*
X2431729Y-37817674D02*
X2441253Y-37779579D01*
X2441253Y-37779579D02*
X2450777Y-37760531D01*
X2450777Y-37760531D02*
X2460301Y-37751008D01*
X2460301Y-37751008D02*
X2479348Y-37741484D01*
X2612682Y-37741484D02*
X2746015Y-37741484D01*
X2746015Y-37741484D02*
X2660301Y-37941484D01*
X2860301Y-37741484D02*
X2879348Y-37741484D01*
X2879348Y-37741484D02*
X2898396Y-37751008D01*
X2898396Y-37751008D02*
X2907920Y-37760531D01*
X2907920Y-37760531D02*
X2917444Y-37779579D01*
X2917444Y-37779579D02*
X2926967Y-37817674D01*
X2926967Y-37817674D02*
X2926967Y-37865293D01*
X2926967Y-37865293D02*
X2917444Y-37903389D01*
X2917444Y-37903389D02*
X2907920Y-37922436D01*
X2907920Y-37922436D02*
X2898396Y-37931960D01*
X2898396Y-37931960D02*
X2879348Y-37941484D01*
X2879348Y-37941484D02*
X2860301Y-37941484D01*
X2860301Y-37941484D02*
X2841253Y-37931960D01*
X2841253Y-37931960D02*
X2831729Y-37922436D01*
X2831729Y-37922436D02*
X2822206Y-37903389D01*
X2822206Y-37903389D02*
X2812682Y-37865293D01*
X2812682Y-37865293D02*
X2812682Y-37817674D01*
X2812682Y-37817674D02*
X2822206Y-37779579D01*
X2822206Y-37779579D02*
X2831729Y-37760531D01*
X2831729Y-37760531D02*
X2841253Y-37751008D01*
X2841253Y-37751008D02*
X2860301Y-37741484D01*
X3022206Y-37941484D02*
X3060301Y-37941484D01*
X3060301Y-37941484D02*
X3079348Y-37931960D01*
X3079348Y-37931960D02*
X3088872Y-37922436D01*
X3088872Y-37922436D02*
X3107920Y-37893865D01*
X3107920Y-37893865D02*
X3117444Y-37855770D01*
X3117444Y-37855770D02*
X3117444Y-37779579D01*
X3117444Y-37779579D02*
X3107920Y-37760531D01*
X3107920Y-37760531D02*
X3098396Y-37751008D01*
X3098396Y-37751008D02*
X3079348Y-37741484D01*
X3079348Y-37741484D02*
X3041253Y-37741484D01*
X3041253Y-37741484D02*
X3022206Y-37751008D01*
X3022206Y-37751008D02*
X3012682Y-37760531D01*
X3012682Y-37760531D02*
X3003158Y-37779579D01*
X3003158Y-37779579D02*
X3003158Y-37827198D01*
X3003158Y-37827198D02*
X3012682Y-37846246D01*
X3012682Y-37846246D02*
X3022206Y-37855770D01*
X3022206Y-37855770D02*
X3041253Y-37865293D01*
X3041253Y-37865293D02*
X3079348Y-37865293D01*
X3079348Y-37865293D02*
X3098396Y-37855770D01*
X3098396Y-37855770D02*
X3107920Y-37846246D01*
X3107920Y-37846246D02*
X3117444Y-37827198D01*
X3193634Y-37741484D02*
X3193634Y-37779579D01*
X3269825Y-37741484D02*
X3269825Y-37779579D01*
X3565063Y-38017674D02*
X3555539Y-38008150D01*
X3555539Y-38008150D02*
X3536491Y-37979579D01*
X3536491Y-37979579D02*
X3526968Y-37960531D01*
X3526968Y-37960531D02*
X3517444Y-37931960D01*
X3517444Y-37931960D02*
X3507920Y-37884341D01*
X3507920Y-37884341D02*
X3507920Y-37846246D01*
X3507920Y-37846246D02*
X3517444Y-37798627D01*
X3517444Y-37798627D02*
X3526968Y-37770055D01*
X3526968Y-37770055D02*
X3536491Y-37751008D01*
X3536491Y-37751008D02*
X3555539Y-37722436D01*
X3555539Y-37722436D02*
X3565063Y-37712912D01*
X3622206Y-37741484D02*
X3746015Y-37741484D01*
X3746015Y-37741484D02*
X3679348Y-37817674D01*
X3679348Y-37817674D02*
X3707920Y-37817674D01*
X3707920Y-37817674D02*
X3726968Y-37827198D01*
X3726968Y-37827198D02*
X3736491Y-37836722D01*
X3736491Y-37836722D02*
X3746015Y-37855770D01*
X3746015Y-37855770D02*
X3746015Y-37903389D01*
X3746015Y-37903389D02*
X3736491Y-37922436D01*
X3736491Y-37922436D02*
X3726968Y-37931960D01*
X3726968Y-37931960D02*
X3707920Y-37941484D01*
X3707920Y-37941484D02*
X3650777Y-37941484D01*
X3650777Y-37941484D02*
X3631729Y-37931960D01*
X3631729Y-37931960D02*
X3622206Y-37922436D01*
X3822206Y-37760531D02*
X3831729Y-37751008D01*
X3831729Y-37751008D02*
X3850777Y-37741484D01*
X3850777Y-37741484D02*
X3898396Y-37741484D01*
X3898396Y-37741484D02*
X3917444Y-37751008D01*
X3917444Y-37751008D02*
X3926968Y-37760531D01*
X3926968Y-37760531D02*
X3936491Y-37779579D01*
X3936491Y-37779579D02*
X3936491Y-37798627D01*
X3936491Y-37798627D02*
X3926968Y-37827198D01*
X3926968Y-37827198D02*
X3812682Y-37941484D01*
X3812682Y-37941484D02*
X3936491Y-37941484D01*
X4174587Y-37941484D02*
X4174587Y-37741484D01*
X4260301Y-37941484D02*
X4260301Y-37836722D01*
X4260301Y-37836722D02*
X4250777Y-37817674D01*
X4250777Y-37817674D02*
X4231730Y-37808150D01*
X4231730Y-37808150D02*
X4203158Y-37808150D01*
X4203158Y-37808150D02*
X4184110Y-37817674D01*
X4184110Y-37817674D02*
X4174587Y-37827198D01*
X4384111Y-37941484D02*
X4365063Y-37931960D01*
X4365063Y-37931960D02*
X4355539Y-37922436D01*
X4355539Y-37922436D02*
X4346015Y-37903389D01*
X4346015Y-37903389D02*
X4346015Y-37846246D01*
X4346015Y-37846246D02*
X4355539Y-37827198D01*
X4355539Y-37827198D02*
X4365063Y-37817674D01*
X4365063Y-37817674D02*
X4384111Y-37808150D01*
X4384111Y-37808150D02*
X4412682Y-37808150D01*
X4412682Y-37808150D02*
X4431730Y-37817674D01*
X4431730Y-37817674D02*
X4441253Y-37827198D01*
X4441253Y-37827198D02*
X4450777Y-37846246D01*
X4450777Y-37846246D02*
X4450777Y-37903389D01*
X4450777Y-37903389D02*
X4441253Y-37922436D01*
X4441253Y-37922436D02*
X4431730Y-37931960D01*
X4431730Y-37931960D02*
X4412682Y-37941484D01*
X4412682Y-37941484D02*
X4384111Y-37941484D01*
X4565063Y-37941484D02*
X4546015Y-37931960D01*
X4546015Y-37931960D02*
X4536492Y-37912912D01*
X4536492Y-37912912D02*
X4536492Y-37741484D01*
X4717444Y-37931960D02*
X4698396Y-37941484D01*
X4698396Y-37941484D02*
X4660301Y-37941484D01*
X4660301Y-37941484D02*
X4641253Y-37931960D01*
X4641253Y-37931960D02*
X4631730Y-37912912D01*
X4631730Y-37912912D02*
X4631730Y-37836722D01*
X4631730Y-37836722D02*
X4641253Y-37817674D01*
X4641253Y-37817674D02*
X4660301Y-37808150D01*
X4660301Y-37808150D02*
X4698396Y-37808150D01*
X4698396Y-37808150D02*
X4717444Y-37817674D01*
X4717444Y-37817674D02*
X4726968Y-37836722D01*
X4726968Y-37836722D02*
X4726968Y-37855770D01*
X4726968Y-37855770D02*
X4631730Y-37874817D01*
X4803158Y-37931960D02*
X4822206Y-37941484D01*
X4822206Y-37941484D02*
X4860301Y-37941484D01*
X4860301Y-37941484D02*
X4879349Y-37931960D01*
X4879349Y-37931960D02*
X4888873Y-37912912D01*
X4888873Y-37912912D02*
X4888873Y-37903389D01*
X4888873Y-37903389D02*
X4879349Y-37884341D01*
X4879349Y-37884341D02*
X4860301Y-37874817D01*
X4860301Y-37874817D02*
X4831730Y-37874817D01*
X4831730Y-37874817D02*
X4812682Y-37865293D01*
X4812682Y-37865293D02*
X4803158Y-37846246D01*
X4803158Y-37846246D02*
X4803158Y-37836722D01*
X4803158Y-37836722D02*
X4812682Y-37817674D01*
X4812682Y-37817674D02*
X4831730Y-37808150D01*
X4831730Y-37808150D02*
X4860301Y-37808150D01*
X4860301Y-37808150D02*
X4879349Y-37817674D01*
X4955539Y-38017674D02*
X4965063Y-38008150D01*
X4965063Y-38008150D02*
X4984111Y-37979579D01*
X4984111Y-37979579D02*
X4993634Y-37960531D01*
X4993634Y-37960531D02*
X5003158Y-37931960D01*
X5003158Y-37931960D02*
X5012682Y-37884341D01*
X5012682Y-37884341D02*
X5012682Y-37846246D01*
X5012682Y-37846246D02*
X5003158Y-37798627D01*
X5003158Y-37798627D02*
X4993634Y-37770055D01*
X4993634Y-37770055D02*
X4984111Y-37751008D01*
X4984111Y-37751008D02*
X4965063Y-37722436D01*
X4965063Y-37722436D02*
X4955539Y-37712912D01*
X5317444Y-38017674D02*
X5307920Y-38008150D01*
X5307920Y-38008150D02*
X5288873Y-37979579D01*
X5288873Y-37979579D02*
X5279349Y-37960531D01*
X5279349Y-37960531D02*
X5269825Y-37931960D01*
X5269825Y-37931960D02*
X5260301Y-37884341D01*
X5260301Y-37884341D02*
X5260301Y-37846246D01*
X5260301Y-37846246D02*
X5269825Y-37798627D01*
X5269825Y-37798627D02*
X5279349Y-37770055D01*
X5279349Y-37770055D02*
X5288873Y-37751008D01*
X5288873Y-37751008D02*
X5307920Y-37722436D01*
X5307920Y-37722436D02*
X5317444Y-37712912D01*
X5393634Y-37808150D02*
X5393634Y-37941484D01*
X5393634Y-37827198D02*
X5403158Y-37817674D01*
X5403158Y-37817674D02*
X5422206Y-37808150D01*
X5422206Y-37808150D02*
X5450777Y-37808150D01*
X5450777Y-37808150D02*
X5469825Y-37817674D01*
X5469825Y-37817674D02*
X5479349Y-37836722D01*
X5479349Y-37836722D02*
X5479349Y-37941484D01*
X5603158Y-37941484D02*
X5584111Y-37931960D01*
X5584111Y-37931960D02*
X5574587Y-37922436D01*
X5574587Y-37922436D02*
X5565063Y-37903389D01*
X5565063Y-37903389D02*
X5565063Y-37846246D01*
X5565063Y-37846246D02*
X5574587Y-37827198D01*
X5574587Y-37827198D02*
X5584111Y-37817674D01*
X5584111Y-37817674D02*
X5603158Y-37808150D01*
X5603158Y-37808150D02*
X5631730Y-37808150D01*
X5631730Y-37808150D02*
X5650777Y-37817674D01*
X5650777Y-37817674D02*
X5660301Y-37827198D01*
X5660301Y-37827198D02*
X5669825Y-37846246D01*
X5669825Y-37846246D02*
X5669825Y-37903389D01*
X5669825Y-37903389D02*
X5660301Y-37922436D01*
X5660301Y-37922436D02*
X5650777Y-37931960D01*
X5650777Y-37931960D02*
X5631730Y-37941484D01*
X5631730Y-37941484D02*
X5603158Y-37941484D01*
X5726968Y-37808150D02*
X5803158Y-37808150D01*
X5755539Y-37741484D02*
X5755539Y-37912912D01*
X5755539Y-37912912D02*
X5765063Y-37931960D01*
X5765063Y-37931960D02*
X5784111Y-37941484D01*
X5784111Y-37941484D02*
X5803158Y-37941484D01*
X6022206Y-37808150D02*
X6022206Y-38008150D01*
X6022206Y-37817674D02*
X6041253Y-37808150D01*
X6041253Y-37808150D02*
X6079349Y-37808150D01*
X6079349Y-37808150D02*
X6098396Y-37817674D01*
X6098396Y-37817674D02*
X6107920Y-37827198D01*
X6107920Y-37827198D02*
X6117444Y-37846246D01*
X6117444Y-37846246D02*
X6117444Y-37903389D01*
X6117444Y-37903389D02*
X6107920Y-37922436D01*
X6107920Y-37922436D02*
X6098396Y-37931960D01*
X6098396Y-37931960D02*
X6079349Y-37941484D01*
X6079349Y-37941484D02*
X6041253Y-37941484D01*
X6041253Y-37941484D02*
X6022206Y-37931960D01*
X6231730Y-37941484D02*
X6212682Y-37931960D01*
X6212682Y-37931960D02*
X6203158Y-37912912D01*
X6203158Y-37912912D02*
X6203158Y-37741484D01*
X6393634Y-37941484D02*
X6393634Y-37836722D01*
X6393634Y-37836722D02*
X6384111Y-37817674D01*
X6384111Y-37817674D02*
X6365063Y-37808150D01*
X6365063Y-37808150D02*
X6326968Y-37808150D01*
X6326968Y-37808150D02*
X6307920Y-37817674D01*
X6393634Y-37931960D02*
X6374587Y-37941484D01*
X6374587Y-37941484D02*
X6326968Y-37941484D01*
X6326968Y-37941484D02*
X6307920Y-37931960D01*
X6307920Y-37931960D02*
X6298396Y-37912912D01*
X6298396Y-37912912D02*
X6298396Y-37893865D01*
X6298396Y-37893865D02*
X6307920Y-37874817D01*
X6307920Y-37874817D02*
X6326968Y-37865293D01*
X6326968Y-37865293D02*
X6374587Y-37865293D01*
X6374587Y-37865293D02*
X6393634Y-37855770D01*
X6460301Y-37808150D02*
X6536492Y-37808150D01*
X6488873Y-37741484D02*
X6488873Y-37912912D01*
X6488873Y-37912912D02*
X6498396Y-37931960D01*
X6498396Y-37931960D02*
X6517444Y-37941484D01*
X6517444Y-37941484D02*
X6536492Y-37941484D01*
X6679349Y-37931960D02*
X6660301Y-37941484D01*
X6660301Y-37941484D02*
X6622206Y-37941484D01*
X6622206Y-37941484D02*
X6603158Y-37931960D01*
X6603158Y-37931960D02*
X6593634Y-37912912D01*
X6593634Y-37912912D02*
X6593634Y-37836722D01*
X6593634Y-37836722D02*
X6603158Y-37817674D01*
X6603158Y-37817674D02*
X6622206Y-37808150D01*
X6622206Y-37808150D02*
X6660301Y-37808150D01*
X6660301Y-37808150D02*
X6679349Y-37817674D01*
X6679349Y-37817674D02*
X6688873Y-37836722D01*
X6688873Y-37836722D02*
X6688873Y-37855770D01*
X6688873Y-37855770D02*
X6593634Y-37874817D01*
X6860301Y-37941484D02*
X6860301Y-37741484D01*
X6860301Y-37931960D02*
X6841254Y-37941484D01*
X6841254Y-37941484D02*
X6803158Y-37941484D01*
X6803158Y-37941484D02*
X6784111Y-37931960D01*
X6784111Y-37931960D02*
X6774587Y-37922436D01*
X6774587Y-37922436D02*
X6765063Y-37903389D01*
X6765063Y-37903389D02*
X6765063Y-37846246D01*
X6765063Y-37846246D02*
X6774587Y-37827198D01*
X6774587Y-37827198D02*
X6784111Y-37817674D01*
X6784111Y-37817674D02*
X6803158Y-37808150D01*
X6803158Y-37808150D02*
X6841254Y-37808150D01*
X6841254Y-37808150D02*
X6860301Y-37817674D01*
X6936492Y-38017674D02*
X6946015Y-38008150D01*
X6946015Y-38008150D02*
X6965063Y-37979579D01*
X6965063Y-37979579D02*
X6974587Y-37960531D01*
X6974587Y-37960531D02*
X6984111Y-37931960D01*
X6984111Y-37931960D02*
X6993634Y-37884341D01*
X6993634Y-37884341D02*
X6993634Y-37846246D01*
X6993634Y-37846246D02*
X6984111Y-37798627D01*
X6984111Y-37798627D02*
X6974587Y-37770055D01*
X6974587Y-37770055D02*
X6965063Y-37751008D01*
X6965063Y-37751008D02*
X6946015Y-37722436D01*
X6946015Y-37722436D02*
X6936492Y-37712912D01*
X-10000Y-38150000D02*
G75*
G02*
X-210000Y-38150000I-100000J0D01*
G01*
X-210000Y-38150000D02*
G75*
G02*
X-10000Y-38150000I100000J0D01*
G01*
X231729Y-38041484D02*
X355539Y-38041484D01*
X355539Y-38041484D02*
X288872Y-38117674D01*
X288872Y-38117674D02*
X317444Y-38117674D01*
X317444Y-38117674D02*
X336491Y-38127198D01*
X336491Y-38127198D02*
X346015Y-38136722D01*
X346015Y-38136722D02*
X355539Y-38155770D01*
X355539Y-38155770D02*
X355539Y-38203389D01*
X355539Y-38203389D02*
X346015Y-38222436D01*
X346015Y-38222436D02*
X336491Y-38231960D01*
X336491Y-38231960D02*
X317444Y-38241484D01*
X317444Y-38241484D02*
X260301Y-38241484D01*
X260301Y-38241484D02*
X241253Y-38231960D01*
X241253Y-38231960D02*
X231729Y-38222436D01*
X441253Y-38222436D02*
X450777Y-38231960D01*
X450777Y-38231960D02*
X441253Y-38241484D01*
X441253Y-38241484D02*
X431729Y-38231960D01*
X431729Y-38231960D02*
X441253Y-38222436D01*
X441253Y-38222436D02*
X441253Y-38241484D01*
X546015Y-38241484D02*
X584110Y-38241484D01*
X584110Y-38241484D02*
X603158Y-38231960D01*
X603158Y-38231960D02*
X612682Y-38222436D01*
X612682Y-38222436D02*
X631729Y-38193865D01*
X631729Y-38193865D02*
X641253Y-38155770D01*
X641253Y-38155770D02*
X641253Y-38079579D01*
X641253Y-38079579D02*
X631729Y-38060531D01*
X631729Y-38060531D02*
X622205Y-38051008D01*
X622205Y-38051008D02*
X603158Y-38041484D01*
X603158Y-38041484D02*
X565063Y-38041484D01*
X565063Y-38041484D02*
X546015Y-38051008D01*
X546015Y-38051008D02*
X536491Y-38060531D01*
X536491Y-38060531D02*
X526967Y-38079579D01*
X526967Y-38079579D02*
X526967Y-38127198D01*
X526967Y-38127198D02*
X536491Y-38146246D01*
X536491Y-38146246D02*
X546015Y-38155770D01*
X546015Y-38155770D02*
X565063Y-38165293D01*
X565063Y-38165293D02*
X603158Y-38165293D01*
X603158Y-38165293D02*
X622205Y-38155770D01*
X622205Y-38155770D02*
X631729Y-38146246D01*
X631729Y-38146246D02*
X641253Y-38127198D01*
X765062Y-38041484D02*
X784110Y-38041484D01*
X784110Y-38041484D02*
X803158Y-38051008D01*
X803158Y-38051008D02*
X812682Y-38060531D01*
X812682Y-38060531D02*
X822205Y-38079579D01*
X822205Y-38079579D02*
X831729Y-38117674D01*
X831729Y-38117674D02*
X831729Y-38165293D01*
X831729Y-38165293D02*
X822205Y-38203389D01*
X822205Y-38203389D02*
X812682Y-38222436D01*
X812682Y-38222436D02*
X803158Y-38231960D01*
X803158Y-38231960D02*
X784110Y-38241484D01*
X784110Y-38241484D02*
X765062Y-38241484D01*
X765062Y-38241484D02*
X746015Y-38231960D01*
X746015Y-38231960D02*
X736491Y-38222436D01*
X736491Y-38222436D02*
X726967Y-38203389D01*
X726967Y-38203389D02*
X717443Y-38165293D01*
X717443Y-38165293D02*
X717443Y-38117674D01*
X717443Y-38117674D02*
X726967Y-38079579D01*
X726967Y-38079579D02*
X736491Y-38060531D01*
X736491Y-38060531D02*
X746015Y-38051008D01*
X746015Y-38051008D02*
X765062Y-38041484D01*
X955539Y-38041484D02*
X974586Y-38041484D01*
X974586Y-38041484D02*
X993634Y-38051008D01*
X993634Y-38051008D02*
X1003158Y-38060531D01*
X1003158Y-38060531D02*
X1012682Y-38079579D01*
X1012682Y-38079579D02*
X1022205Y-38117674D01*
X1022205Y-38117674D02*
X1022205Y-38165293D01*
X1022205Y-38165293D02*
X1012682Y-38203389D01*
X1012682Y-38203389D02*
X1003158Y-38222436D01*
X1003158Y-38222436D02*
X993634Y-38231960D01*
X993634Y-38231960D02*
X974586Y-38241484D01*
X974586Y-38241484D02*
X955539Y-38241484D01*
X955539Y-38241484D02*
X936491Y-38231960D01*
X936491Y-38231960D02*
X926967Y-38222436D01*
X926967Y-38222436D02*
X917443Y-38203389D01*
X917443Y-38203389D02*
X907920Y-38165293D01*
X907920Y-38165293D02*
X907920Y-38117674D01*
X907920Y-38117674D02*
X917443Y-38079579D01*
X917443Y-38079579D02*
X926967Y-38060531D01*
X926967Y-38060531D02*
X936491Y-38051008D01*
X936491Y-38051008D02*
X955539Y-38041484D01*
X1107920Y-38241484D02*
X1107920Y-38108150D01*
X1107920Y-38127198D02*
X1117444Y-38117674D01*
X1117444Y-38117674D02*
X1136491Y-38108150D01*
X1136491Y-38108150D02*
X1165063Y-38108150D01*
X1165063Y-38108150D02*
X1184110Y-38117674D01*
X1184110Y-38117674D02*
X1193634Y-38136722D01*
X1193634Y-38136722D02*
X1193634Y-38241484D01*
X1193634Y-38136722D02*
X1203158Y-38117674D01*
X1203158Y-38117674D02*
X1222205Y-38108150D01*
X1222205Y-38108150D02*
X1250777Y-38108150D01*
X1250777Y-38108150D02*
X1269825Y-38117674D01*
X1269825Y-38117674D02*
X1279348Y-38136722D01*
X1279348Y-38136722D02*
X1279348Y-38241484D01*
X1374586Y-38241484D02*
X1374586Y-38108150D01*
X1374586Y-38127198D02*
X1384110Y-38117674D01*
X1384110Y-38117674D02*
X1403158Y-38108150D01*
X1403158Y-38108150D02*
X1431729Y-38108150D01*
X1431729Y-38108150D02*
X1450777Y-38117674D01*
X1450777Y-38117674D02*
X1460301Y-38136722D01*
X1460301Y-38136722D02*
X1460301Y-38241484D01*
X1460301Y-38136722D02*
X1469824Y-38117674D01*
X1469824Y-38117674D02*
X1488872Y-38108150D01*
X1488872Y-38108150D02*
X1517443Y-38108150D01*
X1517443Y-38108150D02*
X1536491Y-38117674D01*
X1536491Y-38117674D02*
X1546015Y-38136722D01*
X1546015Y-38136722D02*
X1546015Y-38241484D01*
X1936491Y-38031960D02*
X1765063Y-38289103D01*
X2193634Y-38041484D02*
X2212682Y-38041484D01*
X2212682Y-38041484D02*
X2231729Y-38051008D01*
X2231729Y-38051008D02*
X2241253Y-38060531D01*
X2241253Y-38060531D02*
X2250777Y-38079579D01*
X2250777Y-38079579D02*
X2260301Y-38117674D01*
X2260301Y-38117674D02*
X2260301Y-38165293D01*
X2260301Y-38165293D02*
X2250777Y-38203389D01*
X2250777Y-38203389D02*
X2241253Y-38222436D01*
X2241253Y-38222436D02*
X2231729Y-38231960D01*
X2231729Y-38231960D02*
X2212682Y-38241484D01*
X2212682Y-38241484D02*
X2193634Y-38241484D01*
X2193634Y-38241484D02*
X2174587Y-38231960D01*
X2174587Y-38231960D02*
X2165063Y-38222436D01*
X2165063Y-38222436D02*
X2155539Y-38203389D01*
X2155539Y-38203389D02*
X2146015Y-38165293D01*
X2146015Y-38165293D02*
X2146015Y-38117674D01*
X2146015Y-38117674D02*
X2155539Y-38079579D01*
X2155539Y-38079579D02*
X2165063Y-38060531D01*
X2165063Y-38060531D02*
X2174587Y-38051008D01*
X2174587Y-38051008D02*
X2193634Y-38041484D01*
X2346015Y-38222436D02*
X2355539Y-38231960D01*
X2355539Y-38231960D02*
X2346015Y-38241484D01*
X2346015Y-38241484D02*
X2336491Y-38231960D01*
X2336491Y-38231960D02*
X2346015Y-38222436D01*
X2346015Y-38222436D02*
X2346015Y-38241484D01*
X2546015Y-38241484D02*
X2431729Y-38241484D01*
X2488872Y-38241484D02*
X2488872Y-38041484D01*
X2488872Y-38041484D02*
X2469825Y-38070055D01*
X2469825Y-38070055D02*
X2450777Y-38089103D01*
X2450777Y-38089103D02*
X2431729Y-38098627D01*
X2726968Y-38041484D02*
X2631729Y-38041484D01*
X2631729Y-38041484D02*
X2622206Y-38136722D01*
X2622206Y-38136722D02*
X2631729Y-38127198D01*
X2631729Y-38127198D02*
X2650777Y-38117674D01*
X2650777Y-38117674D02*
X2698396Y-38117674D01*
X2698396Y-38117674D02*
X2717444Y-38127198D01*
X2717444Y-38127198D02*
X2726968Y-38136722D01*
X2726968Y-38136722D02*
X2736491Y-38155770D01*
X2736491Y-38155770D02*
X2736491Y-38203389D01*
X2736491Y-38203389D02*
X2726968Y-38222436D01*
X2726968Y-38222436D02*
X2717444Y-38231960D01*
X2717444Y-38231960D02*
X2698396Y-38241484D01*
X2698396Y-38241484D02*
X2650777Y-38241484D01*
X2650777Y-38241484D02*
X2631729Y-38231960D01*
X2631729Y-38231960D02*
X2622206Y-38222436D01*
X2803158Y-38041484D02*
X2926967Y-38041484D01*
X2926967Y-38041484D02*
X2860301Y-38117674D01*
X2860301Y-38117674D02*
X2888872Y-38117674D01*
X2888872Y-38117674D02*
X2907920Y-38127198D01*
X2907920Y-38127198D02*
X2917444Y-38136722D01*
X2917444Y-38136722D02*
X2926967Y-38155770D01*
X2926967Y-38155770D02*
X2926967Y-38203389D01*
X2926967Y-38203389D02*
X2917444Y-38222436D01*
X2917444Y-38222436D02*
X2907920Y-38231960D01*
X2907920Y-38231960D02*
X2888872Y-38241484D01*
X2888872Y-38241484D02*
X2831729Y-38241484D01*
X2831729Y-38241484D02*
X2812682Y-38231960D01*
X2812682Y-38231960D02*
X2803158Y-38222436D01*
X3107920Y-38041484D02*
X3012682Y-38041484D01*
X3012682Y-38041484D02*
X3003158Y-38136722D01*
X3003158Y-38136722D02*
X3012682Y-38127198D01*
X3012682Y-38127198D02*
X3031729Y-38117674D01*
X3031729Y-38117674D02*
X3079348Y-38117674D01*
X3079348Y-38117674D02*
X3098396Y-38127198D01*
X3098396Y-38127198D02*
X3107920Y-38136722D01*
X3107920Y-38136722D02*
X3117444Y-38155770D01*
X3117444Y-38155770D02*
X3117444Y-38203389D01*
X3117444Y-38203389D02*
X3107920Y-38222436D01*
X3107920Y-38222436D02*
X3098396Y-38231960D01*
X3098396Y-38231960D02*
X3079348Y-38241484D01*
X3079348Y-38241484D02*
X3031729Y-38241484D01*
X3031729Y-38241484D02*
X3012682Y-38231960D01*
X3012682Y-38231960D02*
X3003158Y-38222436D01*
X3193634Y-38041484D02*
X3193634Y-38079579D01*
X3269825Y-38041484D02*
X3269825Y-38079579D01*
X3565063Y-38317674D02*
X3555539Y-38308150D01*
X3555539Y-38308150D02*
X3536491Y-38279579D01*
X3536491Y-38279579D02*
X3526968Y-38260531D01*
X3526968Y-38260531D02*
X3517444Y-38231960D01*
X3517444Y-38231960D02*
X3507920Y-38184341D01*
X3507920Y-38184341D02*
X3507920Y-38146246D01*
X3507920Y-38146246D02*
X3517444Y-38098627D01*
X3517444Y-38098627D02*
X3526968Y-38070055D01*
X3526968Y-38070055D02*
X3536491Y-38051008D01*
X3536491Y-38051008D02*
X3555539Y-38022436D01*
X3555539Y-38022436D02*
X3565063Y-38012912D01*
X3622206Y-38041484D02*
X3746015Y-38041484D01*
X3746015Y-38041484D02*
X3679348Y-38117674D01*
X3679348Y-38117674D02*
X3707920Y-38117674D01*
X3707920Y-38117674D02*
X3726968Y-38127198D01*
X3726968Y-38127198D02*
X3736491Y-38136722D01*
X3736491Y-38136722D02*
X3746015Y-38155770D01*
X3746015Y-38155770D02*
X3746015Y-38203389D01*
X3746015Y-38203389D02*
X3736491Y-38222436D01*
X3736491Y-38222436D02*
X3726968Y-38231960D01*
X3726968Y-38231960D02*
X3707920Y-38241484D01*
X3707920Y-38241484D02*
X3650777Y-38241484D01*
X3650777Y-38241484D02*
X3631729Y-38231960D01*
X3631729Y-38231960D02*
X3622206Y-38222436D01*
X3822206Y-38060531D02*
X3831729Y-38051008D01*
X3831729Y-38051008D02*
X3850777Y-38041484D01*
X3850777Y-38041484D02*
X3898396Y-38041484D01*
X3898396Y-38041484D02*
X3917444Y-38051008D01*
X3917444Y-38051008D02*
X3926968Y-38060531D01*
X3926968Y-38060531D02*
X3936491Y-38079579D01*
X3936491Y-38079579D02*
X3936491Y-38098627D01*
X3936491Y-38098627D02*
X3926968Y-38127198D01*
X3926968Y-38127198D02*
X3812682Y-38241484D01*
X3812682Y-38241484D02*
X3936491Y-38241484D01*
X4174587Y-38241484D02*
X4174587Y-38041484D01*
X4260301Y-38241484D02*
X4260301Y-38136722D01*
X4260301Y-38136722D02*
X4250777Y-38117674D01*
X4250777Y-38117674D02*
X4231730Y-38108150D01*
X4231730Y-38108150D02*
X4203158Y-38108150D01*
X4203158Y-38108150D02*
X4184110Y-38117674D01*
X4184110Y-38117674D02*
X4174587Y-38127198D01*
X4384111Y-38241484D02*
X4365063Y-38231960D01*
X4365063Y-38231960D02*
X4355539Y-38222436D01*
X4355539Y-38222436D02*
X4346015Y-38203389D01*
X4346015Y-38203389D02*
X4346015Y-38146246D01*
X4346015Y-38146246D02*
X4355539Y-38127198D01*
X4355539Y-38127198D02*
X4365063Y-38117674D01*
X4365063Y-38117674D02*
X4384111Y-38108150D01*
X4384111Y-38108150D02*
X4412682Y-38108150D01*
X4412682Y-38108150D02*
X4431730Y-38117674D01*
X4431730Y-38117674D02*
X4441253Y-38127198D01*
X4441253Y-38127198D02*
X4450777Y-38146246D01*
X4450777Y-38146246D02*
X4450777Y-38203389D01*
X4450777Y-38203389D02*
X4441253Y-38222436D01*
X4441253Y-38222436D02*
X4431730Y-38231960D01*
X4431730Y-38231960D02*
X4412682Y-38241484D01*
X4412682Y-38241484D02*
X4384111Y-38241484D01*
X4565063Y-38241484D02*
X4546015Y-38231960D01*
X4546015Y-38231960D02*
X4536492Y-38212912D01*
X4536492Y-38212912D02*
X4536492Y-38041484D01*
X4717444Y-38231960D02*
X4698396Y-38241484D01*
X4698396Y-38241484D02*
X4660301Y-38241484D01*
X4660301Y-38241484D02*
X4641253Y-38231960D01*
X4641253Y-38231960D02*
X4631730Y-38212912D01*
X4631730Y-38212912D02*
X4631730Y-38136722D01*
X4631730Y-38136722D02*
X4641253Y-38117674D01*
X4641253Y-38117674D02*
X4660301Y-38108150D01*
X4660301Y-38108150D02*
X4698396Y-38108150D01*
X4698396Y-38108150D02*
X4717444Y-38117674D01*
X4717444Y-38117674D02*
X4726968Y-38136722D01*
X4726968Y-38136722D02*
X4726968Y-38155770D01*
X4726968Y-38155770D02*
X4631730Y-38174817D01*
X4803158Y-38231960D02*
X4822206Y-38241484D01*
X4822206Y-38241484D02*
X4860301Y-38241484D01*
X4860301Y-38241484D02*
X4879349Y-38231960D01*
X4879349Y-38231960D02*
X4888873Y-38212912D01*
X4888873Y-38212912D02*
X4888873Y-38203389D01*
X4888873Y-38203389D02*
X4879349Y-38184341D01*
X4879349Y-38184341D02*
X4860301Y-38174817D01*
X4860301Y-38174817D02*
X4831730Y-38174817D01*
X4831730Y-38174817D02*
X4812682Y-38165293D01*
X4812682Y-38165293D02*
X4803158Y-38146246D01*
X4803158Y-38146246D02*
X4803158Y-38136722D01*
X4803158Y-38136722D02*
X4812682Y-38117674D01*
X4812682Y-38117674D02*
X4831730Y-38108150D01*
X4831730Y-38108150D02*
X4860301Y-38108150D01*
X4860301Y-38108150D02*
X4879349Y-38117674D01*
X4955539Y-38317674D02*
X4965063Y-38308150D01*
X4965063Y-38308150D02*
X4984111Y-38279579D01*
X4984111Y-38279579D02*
X4993634Y-38260531D01*
X4993634Y-38260531D02*
X5003158Y-38231960D01*
X5003158Y-38231960D02*
X5012682Y-38184341D01*
X5012682Y-38184341D02*
X5012682Y-38146246D01*
X5012682Y-38146246D02*
X5003158Y-38098627D01*
X5003158Y-38098627D02*
X4993634Y-38070055D01*
X4993634Y-38070055D02*
X4984111Y-38051008D01*
X4984111Y-38051008D02*
X4965063Y-38022436D01*
X4965063Y-38022436D02*
X4955539Y-38012912D01*
X5317444Y-38317674D02*
X5307920Y-38308150D01*
X5307920Y-38308150D02*
X5288873Y-38279579D01*
X5288873Y-38279579D02*
X5279349Y-38260531D01*
X5279349Y-38260531D02*
X5269825Y-38231960D01*
X5269825Y-38231960D02*
X5260301Y-38184341D01*
X5260301Y-38184341D02*
X5260301Y-38146246D01*
X5260301Y-38146246D02*
X5269825Y-38098627D01*
X5269825Y-38098627D02*
X5279349Y-38070055D01*
X5279349Y-38070055D02*
X5288873Y-38051008D01*
X5288873Y-38051008D02*
X5307920Y-38022436D01*
X5307920Y-38022436D02*
X5317444Y-38012912D01*
X5393634Y-38108150D02*
X5393634Y-38241484D01*
X5393634Y-38127198D02*
X5403158Y-38117674D01*
X5403158Y-38117674D02*
X5422206Y-38108150D01*
X5422206Y-38108150D02*
X5450777Y-38108150D01*
X5450777Y-38108150D02*
X5469825Y-38117674D01*
X5469825Y-38117674D02*
X5479349Y-38136722D01*
X5479349Y-38136722D02*
X5479349Y-38241484D01*
X5603158Y-38241484D02*
X5584111Y-38231960D01*
X5584111Y-38231960D02*
X5574587Y-38222436D01*
X5574587Y-38222436D02*
X5565063Y-38203389D01*
X5565063Y-38203389D02*
X5565063Y-38146246D01*
X5565063Y-38146246D02*
X5574587Y-38127198D01*
X5574587Y-38127198D02*
X5584111Y-38117674D01*
X5584111Y-38117674D02*
X5603158Y-38108150D01*
X5603158Y-38108150D02*
X5631730Y-38108150D01*
X5631730Y-38108150D02*
X5650777Y-38117674D01*
X5650777Y-38117674D02*
X5660301Y-38127198D01*
X5660301Y-38127198D02*
X5669825Y-38146246D01*
X5669825Y-38146246D02*
X5669825Y-38203389D01*
X5669825Y-38203389D02*
X5660301Y-38222436D01*
X5660301Y-38222436D02*
X5650777Y-38231960D01*
X5650777Y-38231960D02*
X5631730Y-38241484D01*
X5631730Y-38241484D02*
X5603158Y-38241484D01*
X5726968Y-38108150D02*
X5803158Y-38108150D01*
X5755539Y-38041484D02*
X5755539Y-38212912D01*
X5755539Y-38212912D02*
X5765063Y-38231960D01*
X5765063Y-38231960D02*
X5784111Y-38241484D01*
X5784111Y-38241484D02*
X5803158Y-38241484D01*
X6022206Y-38108150D02*
X6022206Y-38308150D01*
X6022206Y-38117674D02*
X6041253Y-38108150D01*
X6041253Y-38108150D02*
X6079349Y-38108150D01*
X6079349Y-38108150D02*
X6098396Y-38117674D01*
X6098396Y-38117674D02*
X6107920Y-38127198D01*
X6107920Y-38127198D02*
X6117444Y-38146246D01*
X6117444Y-38146246D02*
X6117444Y-38203389D01*
X6117444Y-38203389D02*
X6107920Y-38222436D01*
X6107920Y-38222436D02*
X6098396Y-38231960D01*
X6098396Y-38231960D02*
X6079349Y-38241484D01*
X6079349Y-38241484D02*
X6041253Y-38241484D01*
X6041253Y-38241484D02*
X6022206Y-38231960D01*
X6231730Y-38241484D02*
X6212682Y-38231960D01*
X6212682Y-38231960D02*
X6203158Y-38212912D01*
X6203158Y-38212912D02*
X6203158Y-38041484D01*
X6393634Y-38241484D02*
X6393634Y-38136722D01*
X6393634Y-38136722D02*
X6384111Y-38117674D01*
X6384111Y-38117674D02*
X6365063Y-38108150D01*
X6365063Y-38108150D02*
X6326968Y-38108150D01*
X6326968Y-38108150D02*
X6307920Y-38117674D01*
X6393634Y-38231960D02*
X6374587Y-38241484D01*
X6374587Y-38241484D02*
X6326968Y-38241484D01*
X6326968Y-38241484D02*
X6307920Y-38231960D01*
X6307920Y-38231960D02*
X6298396Y-38212912D01*
X6298396Y-38212912D02*
X6298396Y-38193865D01*
X6298396Y-38193865D02*
X6307920Y-38174817D01*
X6307920Y-38174817D02*
X6326968Y-38165293D01*
X6326968Y-38165293D02*
X6374587Y-38165293D01*
X6374587Y-38165293D02*
X6393634Y-38155770D01*
X6460301Y-38108150D02*
X6536492Y-38108150D01*
X6488873Y-38041484D02*
X6488873Y-38212912D01*
X6488873Y-38212912D02*
X6498396Y-38231960D01*
X6498396Y-38231960D02*
X6517444Y-38241484D01*
X6517444Y-38241484D02*
X6536492Y-38241484D01*
X6679349Y-38231960D02*
X6660301Y-38241484D01*
X6660301Y-38241484D02*
X6622206Y-38241484D01*
X6622206Y-38241484D02*
X6603158Y-38231960D01*
X6603158Y-38231960D02*
X6593634Y-38212912D01*
X6593634Y-38212912D02*
X6593634Y-38136722D01*
X6593634Y-38136722D02*
X6603158Y-38117674D01*
X6603158Y-38117674D02*
X6622206Y-38108150D01*
X6622206Y-38108150D02*
X6660301Y-38108150D01*
X6660301Y-38108150D02*
X6679349Y-38117674D01*
X6679349Y-38117674D02*
X6688873Y-38136722D01*
X6688873Y-38136722D02*
X6688873Y-38155770D01*
X6688873Y-38155770D02*
X6593634Y-38174817D01*
X6860301Y-38241484D02*
X6860301Y-38041484D01*
X6860301Y-38231960D02*
X6841254Y-38241484D01*
X6841254Y-38241484D02*
X6803158Y-38241484D01*
X6803158Y-38241484D02*
X6784111Y-38231960D01*
X6784111Y-38231960D02*
X6774587Y-38222436D01*
X6774587Y-38222436D02*
X6765063Y-38203389D01*
X6765063Y-38203389D02*
X6765063Y-38146246D01*
X6765063Y-38146246D02*
X6774587Y-38127198D01*
X6774587Y-38127198D02*
X6784111Y-38117674D01*
X6784111Y-38117674D02*
X6803158Y-38108150D01*
X6803158Y-38108150D02*
X6841254Y-38108150D01*
X6841254Y-38108150D02*
X6860301Y-38117674D01*
X6936492Y-38317674D02*
X6946015Y-38308150D01*
X6946015Y-38308150D02*
X6965063Y-38279579D01*
X6965063Y-38279579D02*
X6974587Y-38260531D01*
X6974587Y-38260531D02*
X6984111Y-38231960D01*
X6984111Y-38231960D02*
X6993634Y-38184341D01*
X6993634Y-38184341D02*
X6993634Y-38146246D01*
X6993634Y-38146246D02*
X6984111Y-38098627D01*
X6984111Y-38098627D02*
X6974587Y-38070055D01*
X6974587Y-38070055D02*
X6965063Y-38051008D01*
X6965063Y-38051008D02*
X6946015Y-38022436D01*
X6946015Y-38022436D02*
X6936492Y-38012912D01*
X-110000Y-38370000D02*
X-110000Y-38570000D01*
X-210000Y-38470000D02*
X-10000Y-38470000D01*
X336491Y-38361484D02*
X298396Y-38361484D01*
X298396Y-38361484D02*
X279348Y-38371008D01*
X279348Y-38371008D02*
X269824Y-38380531D01*
X269824Y-38380531D02*
X250777Y-38409103D01*
X250777Y-38409103D02*
X241253Y-38447198D01*
X241253Y-38447198D02*
X241253Y-38523389D01*
X241253Y-38523389D02*
X250777Y-38542436D01*
X250777Y-38542436D02*
X260301Y-38551960D01*
X260301Y-38551960D02*
X279348Y-38561484D01*
X279348Y-38561484D02*
X317444Y-38561484D01*
X317444Y-38561484D02*
X336491Y-38551960D01*
X336491Y-38551960D02*
X346015Y-38542436D01*
X346015Y-38542436D02*
X355539Y-38523389D01*
X355539Y-38523389D02*
X355539Y-38475770D01*
X355539Y-38475770D02*
X346015Y-38456722D01*
X346015Y-38456722D02*
X336491Y-38447198D01*
X336491Y-38447198D02*
X317444Y-38437674D01*
X317444Y-38437674D02*
X279348Y-38437674D01*
X279348Y-38437674D02*
X260301Y-38447198D01*
X260301Y-38447198D02*
X250777Y-38456722D01*
X250777Y-38456722D02*
X241253Y-38475770D01*
X441253Y-38542436D02*
X450777Y-38551960D01*
X450777Y-38551960D02*
X441253Y-38561484D01*
X441253Y-38561484D02*
X431729Y-38551960D01*
X431729Y-38551960D02*
X441253Y-38542436D01*
X441253Y-38542436D02*
X441253Y-38561484D01*
X622205Y-38361484D02*
X584110Y-38361484D01*
X584110Y-38361484D02*
X565063Y-38371008D01*
X565063Y-38371008D02*
X555539Y-38380531D01*
X555539Y-38380531D02*
X536491Y-38409103D01*
X536491Y-38409103D02*
X526967Y-38447198D01*
X526967Y-38447198D02*
X526967Y-38523389D01*
X526967Y-38523389D02*
X536491Y-38542436D01*
X536491Y-38542436D02*
X546015Y-38551960D01*
X546015Y-38551960D02*
X565063Y-38561484D01*
X565063Y-38561484D02*
X603158Y-38561484D01*
X603158Y-38561484D02*
X622205Y-38551960D01*
X622205Y-38551960D02*
X631729Y-38542436D01*
X631729Y-38542436D02*
X641253Y-38523389D01*
X641253Y-38523389D02*
X641253Y-38475770D01*
X641253Y-38475770D02*
X631729Y-38456722D01*
X631729Y-38456722D02*
X622205Y-38447198D01*
X622205Y-38447198D02*
X603158Y-38437674D01*
X603158Y-38437674D02*
X565063Y-38437674D01*
X565063Y-38437674D02*
X546015Y-38447198D01*
X546015Y-38447198D02*
X536491Y-38456722D01*
X536491Y-38456722D02*
X526967Y-38475770D01*
X765062Y-38361484D02*
X784110Y-38361484D01*
X784110Y-38361484D02*
X803158Y-38371008D01*
X803158Y-38371008D02*
X812682Y-38380531D01*
X812682Y-38380531D02*
X822205Y-38399579D01*
X822205Y-38399579D02*
X831729Y-38437674D01*
X831729Y-38437674D02*
X831729Y-38485293D01*
X831729Y-38485293D02*
X822205Y-38523389D01*
X822205Y-38523389D02*
X812682Y-38542436D01*
X812682Y-38542436D02*
X803158Y-38551960D01*
X803158Y-38551960D02*
X784110Y-38561484D01*
X784110Y-38561484D02*
X765062Y-38561484D01*
X765062Y-38561484D02*
X746015Y-38551960D01*
X746015Y-38551960D02*
X736491Y-38542436D01*
X736491Y-38542436D02*
X726967Y-38523389D01*
X726967Y-38523389D02*
X717443Y-38485293D01*
X717443Y-38485293D02*
X717443Y-38437674D01*
X717443Y-38437674D02*
X726967Y-38399579D01*
X726967Y-38399579D02*
X736491Y-38380531D01*
X736491Y-38380531D02*
X746015Y-38371008D01*
X746015Y-38371008D02*
X765062Y-38361484D01*
X955539Y-38361484D02*
X974586Y-38361484D01*
X974586Y-38361484D02*
X993634Y-38371008D01*
X993634Y-38371008D02*
X1003158Y-38380531D01*
X1003158Y-38380531D02*
X1012682Y-38399579D01*
X1012682Y-38399579D02*
X1022205Y-38437674D01*
X1022205Y-38437674D02*
X1022205Y-38485293D01*
X1022205Y-38485293D02*
X1012682Y-38523389D01*
X1012682Y-38523389D02*
X1003158Y-38542436D01*
X1003158Y-38542436D02*
X993634Y-38551960D01*
X993634Y-38551960D02*
X974586Y-38561484D01*
X974586Y-38561484D02*
X955539Y-38561484D01*
X955539Y-38561484D02*
X936491Y-38551960D01*
X936491Y-38551960D02*
X926967Y-38542436D01*
X926967Y-38542436D02*
X917443Y-38523389D01*
X917443Y-38523389D02*
X907920Y-38485293D01*
X907920Y-38485293D02*
X907920Y-38437674D01*
X907920Y-38437674D02*
X917443Y-38399579D01*
X917443Y-38399579D02*
X926967Y-38380531D01*
X926967Y-38380531D02*
X936491Y-38371008D01*
X936491Y-38371008D02*
X955539Y-38361484D01*
X1107920Y-38561484D02*
X1107920Y-38428150D01*
X1107920Y-38447198D02*
X1117444Y-38437674D01*
X1117444Y-38437674D02*
X1136491Y-38428150D01*
X1136491Y-38428150D02*
X1165063Y-38428150D01*
X1165063Y-38428150D02*
X1184110Y-38437674D01*
X1184110Y-38437674D02*
X1193634Y-38456722D01*
X1193634Y-38456722D02*
X1193634Y-38561484D01*
X1193634Y-38456722D02*
X1203158Y-38437674D01*
X1203158Y-38437674D02*
X1222205Y-38428150D01*
X1222205Y-38428150D02*
X1250777Y-38428150D01*
X1250777Y-38428150D02*
X1269825Y-38437674D01*
X1269825Y-38437674D02*
X1279348Y-38456722D01*
X1279348Y-38456722D02*
X1279348Y-38561484D01*
X1374586Y-38561484D02*
X1374586Y-38428150D01*
X1374586Y-38447198D02*
X1384110Y-38437674D01*
X1384110Y-38437674D02*
X1403158Y-38428150D01*
X1403158Y-38428150D02*
X1431729Y-38428150D01*
X1431729Y-38428150D02*
X1450777Y-38437674D01*
X1450777Y-38437674D02*
X1460301Y-38456722D01*
X1460301Y-38456722D02*
X1460301Y-38561484D01*
X1460301Y-38456722D02*
X1469824Y-38437674D01*
X1469824Y-38437674D02*
X1488872Y-38428150D01*
X1488872Y-38428150D02*
X1517443Y-38428150D01*
X1517443Y-38428150D02*
X1536491Y-38437674D01*
X1536491Y-38437674D02*
X1546015Y-38456722D01*
X1546015Y-38456722D02*
X1546015Y-38561484D01*
X1936491Y-38351960D02*
X1765063Y-38609103D01*
X2193634Y-38361484D02*
X2212682Y-38361484D01*
X2212682Y-38361484D02*
X2231729Y-38371008D01*
X2231729Y-38371008D02*
X2241253Y-38380531D01*
X2241253Y-38380531D02*
X2250777Y-38399579D01*
X2250777Y-38399579D02*
X2260301Y-38437674D01*
X2260301Y-38437674D02*
X2260301Y-38485293D01*
X2260301Y-38485293D02*
X2250777Y-38523389D01*
X2250777Y-38523389D02*
X2241253Y-38542436D01*
X2241253Y-38542436D02*
X2231729Y-38551960D01*
X2231729Y-38551960D02*
X2212682Y-38561484D01*
X2212682Y-38561484D02*
X2193634Y-38561484D01*
X2193634Y-38561484D02*
X2174587Y-38551960D01*
X2174587Y-38551960D02*
X2165063Y-38542436D01*
X2165063Y-38542436D02*
X2155539Y-38523389D01*
X2155539Y-38523389D02*
X2146015Y-38485293D01*
X2146015Y-38485293D02*
X2146015Y-38437674D01*
X2146015Y-38437674D02*
X2155539Y-38399579D01*
X2155539Y-38399579D02*
X2165063Y-38380531D01*
X2165063Y-38380531D02*
X2174587Y-38371008D01*
X2174587Y-38371008D02*
X2193634Y-38361484D01*
X2346015Y-38542436D02*
X2355539Y-38551960D01*
X2355539Y-38551960D02*
X2346015Y-38561484D01*
X2346015Y-38561484D02*
X2336491Y-38551960D01*
X2336491Y-38551960D02*
X2346015Y-38542436D01*
X2346015Y-38542436D02*
X2346015Y-38561484D01*
X2431729Y-38380531D02*
X2441253Y-38371008D01*
X2441253Y-38371008D02*
X2460301Y-38361484D01*
X2460301Y-38361484D02*
X2507920Y-38361484D01*
X2507920Y-38361484D02*
X2526968Y-38371008D01*
X2526968Y-38371008D02*
X2536491Y-38380531D01*
X2536491Y-38380531D02*
X2546015Y-38399579D01*
X2546015Y-38399579D02*
X2546015Y-38418627D01*
X2546015Y-38418627D02*
X2536491Y-38447198D01*
X2536491Y-38447198D02*
X2422206Y-38561484D01*
X2422206Y-38561484D02*
X2546015Y-38561484D01*
X2726968Y-38361484D02*
X2631729Y-38361484D01*
X2631729Y-38361484D02*
X2622206Y-38456722D01*
X2622206Y-38456722D02*
X2631729Y-38447198D01*
X2631729Y-38447198D02*
X2650777Y-38437674D01*
X2650777Y-38437674D02*
X2698396Y-38437674D01*
X2698396Y-38437674D02*
X2717444Y-38447198D01*
X2717444Y-38447198D02*
X2726968Y-38456722D01*
X2726968Y-38456722D02*
X2736491Y-38475770D01*
X2736491Y-38475770D02*
X2736491Y-38523389D01*
X2736491Y-38523389D02*
X2726968Y-38542436D01*
X2726968Y-38542436D02*
X2717444Y-38551960D01*
X2717444Y-38551960D02*
X2698396Y-38561484D01*
X2698396Y-38561484D02*
X2650777Y-38561484D01*
X2650777Y-38561484D02*
X2631729Y-38551960D01*
X2631729Y-38551960D02*
X2622206Y-38542436D01*
X2831729Y-38561484D02*
X2869825Y-38561484D01*
X2869825Y-38561484D02*
X2888872Y-38551960D01*
X2888872Y-38551960D02*
X2898396Y-38542436D01*
X2898396Y-38542436D02*
X2917444Y-38513865D01*
X2917444Y-38513865D02*
X2926967Y-38475770D01*
X2926967Y-38475770D02*
X2926967Y-38399579D01*
X2926967Y-38399579D02*
X2917444Y-38380531D01*
X2917444Y-38380531D02*
X2907920Y-38371008D01*
X2907920Y-38371008D02*
X2888872Y-38361484D01*
X2888872Y-38361484D02*
X2850777Y-38361484D01*
X2850777Y-38361484D02*
X2831729Y-38371008D01*
X2831729Y-38371008D02*
X2822206Y-38380531D01*
X2822206Y-38380531D02*
X2812682Y-38399579D01*
X2812682Y-38399579D02*
X2812682Y-38447198D01*
X2812682Y-38447198D02*
X2822206Y-38466246D01*
X2822206Y-38466246D02*
X2831729Y-38475770D01*
X2831729Y-38475770D02*
X2850777Y-38485293D01*
X2850777Y-38485293D02*
X2888872Y-38485293D01*
X2888872Y-38485293D02*
X2907920Y-38475770D01*
X2907920Y-38475770D02*
X2917444Y-38466246D01*
X2917444Y-38466246D02*
X2926967Y-38447198D01*
X3041253Y-38447198D02*
X3022206Y-38437674D01*
X3022206Y-38437674D02*
X3012682Y-38428150D01*
X3012682Y-38428150D02*
X3003158Y-38409103D01*
X3003158Y-38409103D02*
X3003158Y-38399579D01*
X3003158Y-38399579D02*
X3012682Y-38380531D01*
X3012682Y-38380531D02*
X3022206Y-38371008D01*
X3022206Y-38371008D02*
X3041253Y-38361484D01*
X3041253Y-38361484D02*
X3079348Y-38361484D01*
X3079348Y-38361484D02*
X3098396Y-38371008D01*
X3098396Y-38371008D02*
X3107920Y-38380531D01*
X3107920Y-38380531D02*
X3117444Y-38399579D01*
X3117444Y-38399579D02*
X3117444Y-38409103D01*
X3117444Y-38409103D02*
X3107920Y-38428150D01*
X3107920Y-38428150D02*
X3098396Y-38437674D01*
X3098396Y-38437674D02*
X3079348Y-38447198D01*
X3079348Y-38447198D02*
X3041253Y-38447198D01*
X3041253Y-38447198D02*
X3022206Y-38456722D01*
X3022206Y-38456722D02*
X3012682Y-38466246D01*
X3012682Y-38466246D02*
X3003158Y-38485293D01*
X3003158Y-38485293D02*
X3003158Y-38523389D01*
X3003158Y-38523389D02*
X3012682Y-38542436D01*
X3012682Y-38542436D02*
X3022206Y-38551960D01*
X3022206Y-38551960D02*
X3041253Y-38561484D01*
X3041253Y-38561484D02*
X3079348Y-38561484D01*
X3079348Y-38561484D02*
X3098396Y-38551960D01*
X3098396Y-38551960D02*
X3107920Y-38542436D01*
X3107920Y-38542436D02*
X3117444Y-38523389D01*
X3117444Y-38523389D02*
X3117444Y-38485293D01*
X3117444Y-38485293D02*
X3107920Y-38466246D01*
X3107920Y-38466246D02*
X3098396Y-38456722D01*
X3098396Y-38456722D02*
X3079348Y-38447198D01*
X3193634Y-38361484D02*
X3193634Y-38399579D01*
X3269825Y-38361484D02*
X3269825Y-38399579D01*
X3565063Y-38637674D02*
X3555539Y-38628150D01*
X3555539Y-38628150D02*
X3536491Y-38599579D01*
X3536491Y-38599579D02*
X3526968Y-38580531D01*
X3526968Y-38580531D02*
X3517444Y-38551960D01*
X3517444Y-38551960D02*
X3507920Y-38504341D01*
X3507920Y-38504341D02*
X3507920Y-38466246D01*
X3507920Y-38466246D02*
X3517444Y-38418627D01*
X3517444Y-38418627D02*
X3526968Y-38390055D01*
X3526968Y-38390055D02*
X3536491Y-38371008D01*
X3536491Y-38371008D02*
X3555539Y-38342436D01*
X3555539Y-38342436D02*
X3565063Y-38332912D01*
X3631729Y-38380531D02*
X3641253Y-38371008D01*
X3641253Y-38371008D02*
X3660301Y-38361484D01*
X3660301Y-38361484D02*
X3707920Y-38361484D01*
X3707920Y-38361484D02*
X3726968Y-38371008D01*
X3726968Y-38371008D02*
X3736491Y-38380531D01*
X3736491Y-38380531D02*
X3746015Y-38399579D01*
X3746015Y-38399579D02*
X3746015Y-38418627D01*
X3746015Y-38418627D02*
X3736491Y-38447198D01*
X3736491Y-38447198D02*
X3622206Y-38561484D01*
X3622206Y-38561484D02*
X3746015Y-38561484D01*
X3984110Y-38561484D02*
X3984110Y-38361484D01*
X4069825Y-38561484D02*
X4069825Y-38456722D01*
X4069825Y-38456722D02*
X4060301Y-38437674D01*
X4060301Y-38437674D02*
X4041253Y-38428150D01*
X4041253Y-38428150D02*
X4012682Y-38428150D01*
X4012682Y-38428150D02*
X3993634Y-38437674D01*
X3993634Y-38437674D02*
X3984110Y-38447198D01*
X4193634Y-38561484D02*
X4174587Y-38551960D01*
X4174587Y-38551960D02*
X4165063Y-38542436D01*
X4165063Y-38542436D02*
X4155539Y-38523389D01*
X4155539Y-38523389D02*
X4155539Y-38466246D01*
X4155539Y-38466246D02*
X4165063Y-38447198D01*
X4165063Y-38447198D02*
X4174587Y-38437674D01*
X4174587Y-38437674D02*
X4193634Y-38428150D01*
X4193634Y-38428150D02*
X4222206Y-38428150D01*
X4222206Y-38428150D02*
X4241253Y-38437674D01*
X4241253Y-38437674D02*
X4250777Y-38447198D01*
X4250777Y-38447198D02*
X4260301Y-38466246D01*
X4260301Y-38466246D02*
X4260301Y-38523389D01*
X4260301Y-38523389D02*
X4250777Y-38542436D01*
X4250777Y-38542436D02*
X4241253Y-38551960D01*
X4241253Y-38551960D02*
X4222206Y-38561484D01*
X4222206Y-38561484D02*
X4193634Y-38561484D01*
X4374587Y-38561484D02*
X4355539Y-38551960D01*
X4355539Y-38551960D02*
X4346015Y-38532912D01*
X4346015Y-38532912D02*
X4346015Y-38361484D01*
X4526968Y-38551960D02*
X4507920Y-38561484D01*
X4507920Y-38561484D02*
X4469825Y-38561484D01*
X4469825Y-38561484D02*
X4450777Y-38551960D01*
X4450777Y-38551960D02*
X4441253Y-38532912D01*
X4441253Y-38532912D02*
X4441253Y-38456722D01*
X4441253Y-38456722D02*
X4450777Y-38437674D01*
X4450777Y-38437674D02*
X4469825Y-38428150D01*
X4469825Y-38428150D02*
X4507920Y-38428150D01*
X4507920Y-38428150D02*
X4526968Y-38437674D01*
X4526968Y-38437674D02*
X4536492Y-38456722D01*
X4536492Y-38456722D02*
X4536492Y-38475770D01*
X4536492Y-38475770D02*
X4441253Y-38494817D01*
X4612682Y-38551960D02*
X4631730Y-38561484D01*
X4631730Y-38561484D02*
X4669825Y-38561484D01*
X4669825Y-38561484D02*
X4688873Y-38551960D01*
X4688873Y-38551960D02*
X4698396Y-38532912D01*
X4698396Y-38532912D02*
X4698396Y-38523389D01*
X4698396Y-38523389D02*
X4688873Y-38504341D01*
X4688873Y-38504341D02*
X4669825Y-38494817D01*
X4669825Y-38494817D02*
X4641253Y-38494817D01*
X4641253Y-38494817D02*
X4622206Y-38485293D01*
X4622206Y-38485293D02*
X4612682Y-38466246D01*
X4612682Y-38466246D02*
X4612682Y-38456722D01*
X4612682Y-38456722D02*
X4622206Y-38437674D01*
X4622206Y-38437674D02*
X4641253Y-38428150D01*
X4641253Y-38428150D02*
X4669825Y-38428150D01*
X4669825Y-38428150D02*
X4688873Y-38437674D01*
X4765063Y-38637674D02*
X4774587Y-38628150D01*
X4774587Y-38628150D02*
X4793634Y-38599579D01*
X4793634Y-38599579D02*
X4803158Y-38580531D01*
X4803158Y-38580531D02*
X4812682Y-38551960D01*
X4812682Y-38551960D02*
X4822206Y-38504341D01*
X4822206Y-38504341D02*
X4822206Y-38466246D01*
X4822206Y-38466246D02*
X4812682Y-38418627D01*
X4812682Y-38418627D02*
X4803158Y-38390055D01*
X4803158Y-38390055D02*
X4793634Y-38371008D01*
X4793634Y-38371008D02*
X4774587Y-38342436D01*
X4774587Y-38342436D02*
X4765063Y-38332912D01*
X5126968Y-38637674D02*
X5117444Y-38628150D01*
X5117444Y-38628150D02*
X5098396Y-38599579D01*
X5098396Y-38599579D02*
X5088873Y-38580531D01*
X5088873Y-38580531D02*
X5079349Y-38551960D01*
X5079349Y-38551960D02*
X5069825Y-38504341D01*
X5069825Y-38504341D02*
X5069825Y-38466246D01*
X5069825Y-38466246D02*
X5079349Y-38418627D01*
X5079349Y-38418627D02*
X5088873Y-38390055D01*
X5088873Y-38390055D02*
X5098396Y-38371008D01*
X5098396Y-38371008D02*
X5117444Y-38342436D01*
X5117444Y-38342436D02*
X5126968Y-38332912D01*
X5203158Y-38428150D02*
X5203158Y-38561484D01*
X5203158Y-38447198D02*
X5212682Y-38437674D01*
X5212682Y-38437674D02*
X5231730Y-38428150D01*
X5231730Y-38428150D02*
X5260301Y-38428150D01*
X5260301Y-38428150D02*
X5279349Y-38437674D01*
X5279349Y-38437674D02*
X5288873Y-38456722D01*
X5288873Y-38456722D02*
X5288873Y-38561484D01*
X5412682Y-38561484D02*
X5393634Y-38551960D01*
X5393634Y-38551960D02*
X5384111Y-38542436D01*
X5384111Y-38542436D02*
X5374587Y-38523389D01*
X5374587Y-38523389D02*
X5374587Y-38466246D01*
X5374587Y-38466246D02*
X5384111Y-38447198D01*
X5384111Y-38447198D02*
X5393634Y-38437674D01*
X5393634Y-38437674D02*
X5412682Y-38428150D01*
X5412682Y-38428150D02*
X5441254Y-38428150D01*
X5441254Y-38428150D02*
X5460301Y-38437674D01*
X5460301Y-38437674D02*
X5469825Y-38447198D01*
X5469825Y-38447198D02*
X5479349Y-38466246D01*
X5479349Y-38466246D02*
X5479349Y-38523389D01*
X5479349Y-38523389D02*
X5469825Y-38542436D01*
X5469825Y-38542436D02*
X5460301Y-38551960D01*
X5460301Y-38551960D02*
X5441254Y-38561484D01*
X5441254Y-38561484D02*
X5412682Y-38561484D01*
X5536492Y-38428150D02*
X5612682Y-38428150D01*
X5565063Y-38361484D02*
X5565063Y-38532912D01*
X5565063Y-38532912D02*
X5574587Y-38551960D01*
X5574587Y-38551960D02*
X5593634Y-38561484D01*
X5593634Y-38561484D02*
X5612682Y-38561484D01*
X5831730Y-38428150D02*
X5831730Y-38628150D01*
X5831730Y-38437674D02*
X5850777Y-38428150D01*
X5850777Y-38428150D02*
X5888873Y-38428150D01*
X5888873Y-38428150D02*
X5907920Y-38437674D01*
X5907920Y-38437674D02*
X5917444Y-38447198D01*
X5917444Y-38447198D02*
X5926968Y-38466246D01*
X5926968Y-38466246D02*
X5926968Y-38523389D01*
X5926968Y-38523389D02*
X5917444Y-38542436D01*
X5917444Y-38542436D02*
X5907920Y-38551960D01*
X5907920Y-38551960D02*
X5888873Y-38561484D01*
X5888873Y-38561484D02*
X5850777Y-38561484D01*
X5850777Y-38561484D02*
X5831730Y-38551960D01*
X6041253Y-38561484D02*
X6022206Y-38551960D01*
X6022206Y-38551960D02*
X6012682Y-38532912D01*
X6012682Y-38532912D02*
X6012682Y-38361484D01*
X6203158Y-38561484D02*
X6203158Y-38456722D01*
X6203158Y-38456722D02*
X6193634Y-38437674D01*
X6193634Y-38437674D02*
X6174587Y-38428150D01*
X6174587Y-38428150D02*
X6136492Y-38428150D01*
X6136492Y-38428150D02*
X6117444Y-38437674D01*
X6203158Y-38551960D02*
X6184111Y-38561484D01*
X6184111Y-38561484D02*
X6136492Y-38561484D01*
X6136492Y-38561484D02*
X6117444Y-38551960D01*
X6117444Y-38551960D02*
X6107920Y-38532912D01*
X6107920Y-38532912D02*
X6107920Y-38513865D01*
X6107920Y-38513865D02*
X6117444Y-38494817D01*
X6117444Y-38494817D02*
X6136492Y-38485293D01*
X6136492Y-38485293D02*
X6184111Y-38485293D01*
X6184111Y-38485293D02*
X6203158Y-38475770D01*
X6269825Y-38428150D02*
X6346015Y-38428150D01*
X6298396Y-38361484D02*
X6298396Y-38532912D01*
X6298396Y-38532912D02*
X6307920Y-38551960D01*
X6307920Y-38551960D02*
X6326968Y-38561484D01*
X6326968Y-38561484D02*
X6346015Y-38561484D01*
X6488873Y-38551960D02*
X6469825Y-38561484D01*
X6469825Y-38561484D02*
X6431730Y-38561484D01*
X6431730Y-38561484D02*
X6412682Y-38551960D01*
X6412682Y-38551960D02*
X6403158Y-38532912D01*
X6403158Y-38532912D02*
X6403158Y-38456722D01*
X6403158Y-38456722D02*
X6412682Y-38437674D01*
X6412682Y-38437674D02*
X6431730Y-38428150D01*
X6431730Y-38428150D02*
X6469825Y-38428150D01*
X6469825Y-38428150D02*
X6488873Y-38437674D01*
X6488873Y-38437674D02*
X6498396Y-38456722D01*
X6498396Y-38456722D02*
X6498396Y-38475770D01*
X6498396Y-38475770D02*
X6403158Y-38494817D01*
X6669825Y-38561484D02*
X6669825Y-38361484D01*
X6669825Y-38551960D02*
X6650777Y-38561484D01*
X6650777Y-38561484D02*
X6612682Y-38561484D01*
X6612682Y-38561484D02*
X6593634Y-38551960D01*
X6593634Y-38551960D02*
X6584111Y-38542436D01*
X6584111Y-38542436D02*
X6574587Y-38523389D01*
X6574587Y-38523389D02*
X6574587Y-38466246D01*
X6574587Y-38466246D02*
X6584111Y-38447198D01*
X6584111Y-38447198D02*
X6593634Y-38437674D01*
X6593634Y-38437674D02*
X6612682Y-38428150D01*
X6612682Y-38428150D02*
X6650777Y-38428150D01*
X6650777Y-38428150D02*
X6669825Y-38437674D01*
X6746015Y-38637674D02*
X6755539Y-38628150D01*
X6755539Y-38628150D02*
X6774587Y-38599579D01*
X6774587Y-38599579D02*
X6784111Y-38580531D01*
X6784111Y-38580531D02*
X6793634Y-38551960D01*
X6793634Y-38551960D02*
X6803158Y-38504341D01*
X6803158Y-38504341D02*
X6803158Y-38466246D01*
X6803158Y-38466246D02*
X6793634Y-38418627D01*
X6793634Y-38418627D02*
X6784111Y-38390055D01*
X6784111Y-38390055D02*
X6774587Y-38371008D01*
X6774587Y-38371008D02*
X6755539Y-38342436D01*
X6755539Y-38342436D02*
X6746015Y-38332912D01*
M02*
