M48
; DRILL file {KiCad 9.0.9-9.0.9~ubuntu24.04.1} date 2026-08-22T04:35:52+0000
; FORMAT={-:-/ absolute / metric / decimal}
; #@! TF.CreationDate,2026-08-22T04:35:52+00:00
; #@! TF.GenerationSoftware,Kicad,Pcbnew,9.0.9-9.0.9~ubuntu24.04.1
; #@! TF.FileFunction,Plated,1,12,PTH
FMAT,2
METRIC
; #@! TA.AperFunction,Plated,PTH,ViaDrill
T1C0.400
; #@! TA.AperFunction,Plated,PTH,ComponentDrill
T2C1.000
; #@! TA.AperFunction,Plated,PTH,ComponentDrill
T3C1.400
%
G90
G05
T1
X3.5Y-149.5
X3.5Y-315.5
X15.5Y-146.5
X15.5Y-312.5
X30.0Y-30.0
X30.0Y-90.0
X30.0Y-196.0
X30.0Y-256.0
X37.45Y-146.5
X37.45Y-312.5
X107.55Y-149.5
X107.55Y-315.5
X113.0Y-30.0
X113.0Y-90.0
X113.0Y-196.0
X113.0Y-256.0
X133.0Y-30.0
X133.0Y-90.0
X133.0Y-196.0
X133.0Y-256.0
X140.45Y-146.5
X140.45Y-312.5
X210.55Y-149.5
X210.55Y-315.5
X216.0Y-30.0
X216.0Y-90.0
X216.0Y-196.0
X216.0Y-256.0
X236.0Y-30.0
X236.0Y-90.0
X236.0Y-196.0
X236.0Y-256.0
X243.45Y-146.5
X243.45Y-312.5
X313.55Y-149.5
X313.55Y-315.5
X319.0Y-30.0
X319.0Y-90.0
X319.0Y-196.0
X319.0Y-256.0
X339.0Y-30.0
X339.0Y-90.0
X339.0Y-196.0
X339.0Y-256.0
X346.45Y-146.5
X346.45Y-312.5
X416.55Y-149.5
X416.55Y-315.5
X422.0Y-30.0
X422.0Y-90.0
X422.0Y-196.0
X422.0Y-256.0
T2
X440.0Y-366.0
X442.54Y-366.0
X445.08Y-366.0
T3
X462.38Y-368.32
X470.0Y-348.0
X472.54Y-368.32
X475.08Y-348.0
X482.7Y-348.0
X482.7Y-368.32
M30
