M48
; DRILL file {KiCad 9.0.9-9.0.9~ubuntu24.04.1} date 2026-08-22T02:14:43+0000
; FORMAT={-:-/ absolute / metric / decimal}
; #@! TF.CreationDate,2026-08-22T02:14:43+00:00
; #@! TF.GenerationSoftware,Kicad,Pcbnew,9.0.9-9.0.9~ubuntu24.04.1
; #@! TF.FileFunction,NonPlated,1,12,NPTH
FMAT,2
METRIC
; #@! TA.AperFunction,NonPlated,NPTH,ComponentDrill
T1C1.800
; #@! TA.AperFunction,NonPlated,NPTH,ComponentDrill
T2C3.900
; #@! TA.AperFunction,NonPlated,NPTH,ComponentDrill
T3C6.600
%
G90
G05
T1
X40.0Y-61.5
X40.0Y-163.5
X40.0Y-227.5
X40.0Y-329.5
X103.0Y-61.5
X103.0Y-163.5
X103.0Y-227.5
X103.0Y-329.5
X143.0Y-61.5
X143.0Y-163.5
X143.0Y-227.5
X143.0Y-329.5
X206.0Y-61.5
X206.0Y-163.5
X206.0Y-227.5
X206.0Y-329.5
X246.0Y-61.5
X246.0Y-163.5
X246.0Y-227.5
X246.0Y-329.5
X309.0Y-61.5
X309.0Y-163.5
X309.0Y-227.5
X309.0Y-329.5
X349.0Y-61.5
X349.0Y-163.5
X349.0Y-227.5
X349.0Y-329.5
X412.0Y-61.5
X412.0Y-163.5
X412.0Y-227.5
X412.0Y-329.5
T2
X26.5Y-52.0
X26.5Y-154.0
X26.5Y-218.0
X26.5Y-320.0
X116.5Y-52.0
X116.5Y-154.0
X116.5Y-218.0
X116.5Y-320.0
X129.5Y-52.0
X129.5Y-154.0
X129.5Y-218.0
X129.5Y-320.0
X219.5Y-52.0
X219.5Y-154.0
X219.5Y-218.0
X219.5Y-320.0
X232.5Y-52.0
X232.5Y-154.0
X232.5Y-218.0
X232.5Y-320.0
X322.5Y-52.0
X322.5Y-154.0
X322.5Y-218.0
X322.5Y-320.0
X335.5Y-52.0
X335.5Y-154.0
X335.5Y-218.0
X335.5Y-320.0
X425.5Y-52.0
X425.5Y-154.0
X425.5Y-218.0
X425.5Y-320.0
T3
X55.7Y-362.0
X84.3Y-362.0
M30
