%TF.GenerationSoftware,KiCad,Pcbnew,9.0.9-9.0.9~ubuntu24.04.1*%
%TF.CreationDate,2026-08-22T04:41:35+00:00*%
%TF.ProjectId,MI250X_8OAM_PCBWay_Chassis_Stub,4d493235-3058-45f3-984f-414d5f504342,Rev3_8Seat_PCBWay_v1*%
%TF.SameCoordinates,Original*%
%TF.FileFunction,Drillmap*%
%TF.FilePolarity,Positive*%
%FSLAX45Y45*%
G04 Gerber Fmt 4.5, Leading zero omitted, Abs format (unit mm)*
G04 Created by KiCad (PCBNEW 9.0.9-9.0.9~ubuntu24.04.1) date 2026-08-22 04:41:35*
%MOMM*%
%LPD*%
G01*
G04 APERTURE LIST*
%ADD10C,0.200000*%
%ADD11C,0.100000*%
%ADD12C,0.140000*%
G04 APERTURE END LIST*
D10*
X0Y0D02*
X49200000Y0D01*
X49200000Y-37200000D01*
X0Y-37200000D01*
X0Y0D01*
D11*
X330000Y-14930000D02*
X370000Y-14970000D01*
X370000Y-14930000D02*
X330000Y-14970000D01*
X330000Y-31530000D02*
X370000Y-31570000D01*
X370000Y-31530000D02*
X330000Y-31570000D01*
X1530000Y-14630000D02*
X1570000Y-14670000D01*
X1570000Y-14630000D02*
X1530000Y-14670000D01*
X1530000Y-31230000D02*
X1570000Y-31270000D01*
X1570000Y-31230000D02*
X1530000Y-31270000D01*
X2980000Y-2980000D02*
X3020000Y-3020000D01*
X3020000Y-2980000D02*
X2980000Y-3020000D01*
X2980000Y-8980000D02*
X3020000Y-9020000D01*
X3020000Y-8980000D02*
X2980000Y-9020000D01*
X2980000Y-19580000D02*
X3020000Y-19620000D01*
X3020000Y-19580000D02*
X2980000Y-19620000D01*
X2980000Y-25580000D02*
X3020000Y-25620000D01*
X3020000Y-25580000D02*
X2980000Y-25620000D01*
X3725000Y-14630000D02*
X3765000Y-14670000D01*
X3765000Y-14630000D02*
X3725000Y-14670000D01*
X3725000Y-31230000D02*
X3765000Y-31270000D01*
X3765000Y-31230000D02*
X3725000Y-31270000D01*
X10735000Y-14930000D02*
X10775000Y-14970000D01*
X10775000Y-14930000D02*
X10735000Y-14970000D01*
X10735000Y-31530000D02*
X10775000Y-31570000D01*
X10775000Y-31530000D02*
X10735000Y-31570000D01*
X11280000Y-2980000D02*
X11320000Y-3020000D01*
X11320000Y-2980000D02*
X11280000Y-3020000D01*
X11280000Y-8980000D02*
X11320000Y-9020000D01*
X11320000Y-8980000D02*
X11280000Y-9020000D01*
X11280000Y-19580000D02*
X11320000Y-19620000D01*
X11320000Y-19580000D02*
X11280000Y-19620000D01*
X11280000Y-25580000D02*
X11320000Y-25620000D01*
X11320000Y-25580000D02*
X11280000Y-25620000D01*
X13280000Y-2980000D02*
X13320000Y-3020000D01*
X13320000Y-2980000D02*
X13280000Y-3020000D01*
X13280000Y-8980000D02*
X13320000Y-9020000D01*
X13320000Y-8980000D02*
X13280000Y-9020000D01*
X13280000Y-19580000D02*
X13320000Y-19620000D01*
X13320000Y-19580000D02*
X13280000Y-19620000D01*
X13280000Y-25580000D02*
X13320000Y-25620000D01*
X13320000Y-25580000D02*
X13280000Y-25620000D01*
X14025000Y-14630000D02*
X14065000Y-14670000D01*
X14065000Y-14630000D02*
X14025000Y-14670000D01*
X14025000Y-31230000D02*
X14065000Y-31270000D01*
X14065000Y-31230000D02*
X14025000Y-31270000D01*
X21035000Y-14930000D02*
X21075000Y-14970000D01*
X21075000Y-14930000D02*
X21035000Y-14970000D01*
X21035000Y-31530000D02*
X21075000Y-31570000D01*
X21075000Y-31530000D02*
X21035000Y-31570000D01*
X21580000Y-2980000D02*
X21620000Y-3020000D01*
X21620000Y-2980000D02*
X21580000Y-3020000D01*
X21580000Y-8980000D02*
X21620000Y-9020000D01*
X21620000Y-8980000D02*
X21580000Y-9020000D01*
X21580000Y-19580000D02*
X21620000Y-19620000D01*
X21620000Y-19580000D02*
X21580000Y-19620000D01*
X21580000Y-25580000D02*
X21620000Y-25620000D01*
X21620000Y-25580000D02*
X21580000Y-25620000D01*
X23580000Y-2980000D02*
X23620000Y-3020000D01*
X23620000Y-2980000D02*
X23580000Y-3020000D01*
X23580000Y-8980000D02*
X23620000Y-9020000D01*
X23620000Y-8980000D02*
X23580000Y-9020000D01*
X23580000Y-19580000D02*
X23620000Y-19620000D01*
X23620000Y-19580000D02*
X23580000Y-19620000D01*
X23580000Y-25580000D02*
X23620000Y-25620000D01*
X23620000Y-25580000D02*
X23580000Y-25620000D01*
X24325000Y-14630000D02*
X24365000Y-14670000D01*
X24365000Y-14630000D02*
X24325000Y-14670000D01*
X24325000Y-31230000D02*
X24365000Y-31270000D01*
X24365000Y-31230000D02*
X24325000Y-31270000D01*
X31335000Y-14930000D02*
X31375000Y-14970000D01*
X31375000Y-14930000D02*
X31335000Y-14970000D01*
X31335000Y-31530000D02*
X31375000Y-31570000D01*
X31375000Y-31530000D02*
X31335000Y-31570000D01*
X31880000Y-2980000D02*
X31920000Y-3020000D01*
X31920000Y-2980000D02*
X31880000Y-3020000D01*
X31880000Y-8980000D02*
X31920000Y-9020000D01*
X31920000Y-8980000D02*
X31880000Y-9020000D01*
X31880000Y-19580000D02*
X31920000Y-19620000D01*
X31920000Y-19580000D02*
X31880000Y-19620000D01*
X31880000Y-25580000D02*
X31920000Y-25620000D01*
X31920000Y-25580000D02*
X31880000Y-25620000D01*
X33880000Y-2980000D02*
X33920000Y-3020000D01*
X33920000Y-2980000D02*
X33880000Y-3020000D01*
X33880000Y-8980000D02*
X33920000Y-9020000D01*
X33920000Y-8980000D02*
X33880000Y-9020000D01*
X33880000Y-19580000D02*
X33920000Y-19620000D01*
X33920000Y-19580000D02*
X33880000Y-19620000D01*
X33880000Y-25580000D02*
X33920000Y-25620000D01*
X33920000Y-25580000D02*
X33880000Y-25620000D01*
X34625000Y-14630000D02*
X34665000Y-14670000D01*
X34665000Y-14630000D02*
X34625000Y-14670000D01*
X34625000Y-31230000D02*
X34665000Y-31270000D01*
X34665000Y-31230000D02*
X34625000Y-31270000D01*
X41635000Y-14930000D02*
X41675000Y-14970000D01*
X41675000Y-14930000D02*
X41635000Y-14970000D01*
X41635000Y-31530000D02*
X41675000Y-31570000D01*
X41675000Y-31530000D02*
X41635000Y-31570000D01*
X42180000Y-2980000D02*
X42220000Y-3020000D01*
X42220000Y-2980000D02*
X42180000Y-3020000D01*
X42180000Y-8980000D02*
X42220000Y-9020000D01*
X42220000Y-8980000D02*
X42180000Y-9020000D01*
X42180000Y-19580000D02*
X42220000Y-19620000D01*
X42220000Y-19580000D02*
X42180000Y-19620000D01*
X42180000Y-25580000D02*
X42220000Y-25620000D01*
X42220000Y-25580000D02*
X42180000Y-25620000D01*
X44050000Y-36600000D02*
G75*
G02*
X43950000Y-36600000I-50000J0D01*
G01*
X43950000Y-36600000D02*
G75*
G02*
X44050000Y-36600000I50000J0D01*
G01*
X44304000Y-36600000D02*
G75*
G02*
X44204000Y-36600000I-50000J0D01*
G01*
X44204000Y-36600000D02*
G75*
G02*
X44304000Y-36600000I50000J0D01*
G01*
X44558000Y-36600000D02*
G75*
G02*
X44458000Y-36600000I-50000J0D01*
G01*
X44458000Y-36600000D02*
G75*
G02*
X44558000Y-36600000I50000J0D01*
G01*
D12*
X46238000Y-36762000D02*
X46238000Y-36902000D01*
X46168000Y-36832000D02*
X46308000Y-36832000D01*
X47000000Y-34730000D02*
X47000000Y-34870000D01*
X46930000Y-34800000D02*
X47070000Y-34800000D01*
X47254000Y-36762000D02*
X47254000Y-36902000D01*
X47184000Y-36832000D02*
X47324000Y-36832000D01*
X47508000Y-34730000D02*
X47508000Y-34870000D01*
X47438000Y-34800000D02*
X47578000Y-34800000D01*
X48270000Y-34730000D02*
X48270000Y-34870000D01*
X48200000Y-34800000D02*
X48340000Y-34800000D01*
X48270000Y-36762000D02*
X48270000Y-36902000D01*
X48200000Y-36832000D02*
X48340000Y-36832000D01*
D10*
X250777Y-37521484D02*
X250777Y-37321484D01*
X250777Y-37321484D02*
X298396Y-37321484D01*
X298396Y-37321484D02*
X326967Y-37331008D01*
X326967Y-37331008D02*
X346015Y-37350055D01*
X346015Y-37350055D02*
X355539Y-37369103D01*
X355539Y-37369103D02*
X365062Y-37407198D01*
X365062Y-37407198D02*
X365062Y-37435770D01*
X365062Y-37435770D02*
X355539Y-37473865D01*
X355539Y-37473865D02*
X346015Y-37492912D01*
X346015Y-37492912D02*
X326967Y-37511960D01*
X326967Y-37511960D02*
X298396Y-37521484D01*
X298396Y-37521484D02*
X250777Y-37521484D01*
X450777Y-37521484D02*
X450777Y-37388150D01*
X450777Y-37426246D02*
X460301Y-37407198D01*
X460301Y-37407198D02*
X469824Y-37397674D01*
X469824Y-37397674D02*
X488872Y-37388150D01*
X488872Y-37388150D02*
X507920Y-37388150D01*
X574586Y-37521484D02*
X574586Y-37388150D01*
X574586Y-37321484D02*
X565063Y-37331008D01*
X565063Y-37331008D02*
X574586Y-37340531D01*
X574586Y-37340531D02*
X584110Y-37331008D01*
X584110Y-37331008D02*
X574586Y-37321484D01*
X574586Y-37321484D02*
X574586Y-37340531D01*
X698396Y-37521484D02*
X679348Y-37511960D01*
X679348Y-37511960D02*
X669824Y-37492912D01*
X669824Y-37492912D02*
X669824Y-37321484D01*
X803158Y-37521484D02*
X784110Y-37511960D01*
X784110Y-37511960D02*
X774586Y-37492912D01*
X774586Y-37492912D02*
X774586Y-37321484D01*
X1031729Y-37521484D02*
X1031729Y-37321484D01*
X1031729Y-37321484D02*
X1098396Y-37464341D01*
X1098396Y-37464341D02*
X1165063Y-37321484D01*
X1165063Y-37321484D02*
X1165063Y-37521484D01*
X1346015Y-37521484D02*
X1346015Y-37416722D01*
X1346015Y-37416722D02*
X1336491Y-37397674D01*
X1336491Y-37397674D02*
X1317444Y-37388150D01*
X1317444Y-37388150D02*
X1279348Y-37388150D01*
X1279348Y-37388150D02*
X1260301Y-37397674D01*
X1346015Y-37511960D02*
X1326967Y-37521484D01*
X1326967Y-37521484D02*
X1279348Y-37521484D01*
X1279348Y-37521484D02*
X1260301Y-37511960D01*
X1260301Y-37511960D02*
X1250777Y-37492912D01*
X1250777Y-37492912D02*
X1250777Y-37473865D01*
X1250777Y-37473865D02*
X1260301Y-37454817D01*
X1260301Y-37454817D02*
X1279348Y-37445293D01*
X1279348Y-37445293D02*
X1326967Y-37445293D01*
X1326967Y-37445293D02*
X1346015Y-37435770D01*
X1441253Y-37388150D02*
X1441253Y-37588150D01*
X1441253Y-37397674D02*
X1460301Y-37388150D01*
X1460301Y-37388150D02*
X1498396Y-37388150D01*
X1498396Y-37388150D02*
X1517443Y-37397674D01*
X1517443Y-37397674D02*
X1526967Y-37407198D01*
X1526967Y-37407198D02*
X1536491Y-37426246D01*
X1536491Y-37426246D02*
X1536491Y-37483389D01*
X1536491Y-37483389D02*
X1526967Y-37502436D01*
X1526967Y-37502436D02*
X1517443Y-37511960D01*
X1517443Y-37511960D02*
X1498396Y-37521484D01*
X1498396Y-37521484D02*
X1460301Y-37521484D01*
X1460301Y-37521484D02*
X1441253Y-37511960D01*
X1622205Y-37502436D02*
X1631729Y-37511960D01*
X1631729Y-37511960D02*
X1622205Y-37521484D01*
X1622205Y-37521484D02*
X1612682Y-37511960D01*
X1612682Y-37511960D02*
X1622205Y-37502436D01*
X1622205Y-37502436D02*
X1622205Y-37521484D01*
X1622205Y-37397674D02*
X1631729Y-37407198D01*
X1631729Y-37407198D02*
X1622205Y-37416722D01*
X1622205Y-37416722D02*
X1612682Y-37407198D01*
X1612682Y-37407198D02*
X1622205Y-37397674D01*
X1622205Y-37397674D02*
X1622205Y-37416722D01*
D11*
X-50000Y-37830000D02*
X-10000Y-37870000D01*
X-10000Y-37830000D02*
X-50000Y-37870000D01*
D10*
X288872Y-37741484D02*
X307920Y-37741484D01*
X307920Y-37741484D02*
X326967Y-37751008D01*
X326967Y-37751008D02*
X336491Y-37760531D01*
X336491Y-37760531D02*
X346015Y-37779579D01*
X346015Y-37779579D02*
X355539Y-37817674D01*
X355539Y-37817674D02*
X355539Y-37865293D01*
X355539Y-37865293D02*
X346015Y-37903389D01*
X346015Y-37903389D02*
X336491Y-37922436D01*
X336491Y-37922436D02*
X326967Y-37931960D01*
X326967Y-37931960D02*
X307920Y-37941484D01*
X307920Y-37941484D02*
X288872Y-37941484D01*
X288872Y-37941484D02*
X269824Y-37931960D01*
X269824Y-37931960D02*
X260301Y-37922436D01*
X260301Y-37922436D02*
X250777Y-37903389D01*
X250777Y-37903389D02*
X241253Y-37865293D01*
X241253Y-37865293D02*
X241253Y-37817674D01*
X241253Y-37817674D02*
X250777Y-37779579D01*
X250777Y-37779579D02*
X260301Y-37760531D01*
X260301Y-37760531D02*
X269824Y-37751008D01*
X269824Y-37751008D02*
X288872Y-37741484D01*
X441253Y-37922436D02*
X450777Y-37931960D01*
X450777Y-37931960D02*
X441253Y-37941484D01*
X441253Y-37941484D02*
X431729Y-37931960D01*
X431729Y-37931960D02*
X441253Y-37922436D01*
X441253Y-37922436D02*
X441253Y-37941484D01*
X622205Y-37808150D02*
X622205Y-37941484D01*
X574586Y-37731960D02*
X526967Y-37874817D01*
X526967Y-37874817D02*
X650777Y-37874817D01*
X765062Y-37741484D02*
X784110Y-37741484D01*
X784110Y-37741484D02*
X803158Y-37751008D01*
X803158Y-37751008D02*
X812682Y-37760531D01*
X812682Y-37760531D02*
X822205Y-37779579D01*
X822205Y-37779579D02*
X831729Y-37817674D01*
X831729Y-37817674D02*
X831729Y-37865293D01*
X831729Y-37865293D02*
X822205Y-37903389D01*
X822205Y-37903389D02*
X812682Y-37922436D01*
X812682Y-37922436D02*
X803158Y-37931960D01*
X803158Y-37931960D02*
X784110Y-37941484D01*
X784110Y-37941484D02*
X765062Y-37941484D01*
X765062Y-37941484D02*
X746015Y-37931960D01*
X746015Y-37931960D02*
X736491Y-37922436D01*
X736491Y-37922436D02*
X726967Y-37903389D01*
X726967Y-37903389D02*
X717443Y-37865293D01*
X717443Y-37865293D02*
X717443Y-37817674D01*
X717443Y-37817674D02*
X726967Y-37779579D01*
X726967Y-37779579D02*
X736491Y-37760531D01*
X736491Y-37760531D02*
X746015Y-37751008D01*
X746015Y-37751008D02*
X765062Y-37741484D01*
X955539Y-37741484D02*
X974586Y-37741484D01*
X974586Y-37741484D02*
X993634Y-37751008D01*
X993634Y-37751008D02*
X1003158Y-37760531D01*
X1003158Y-37760531D02*
X1012682Y-37779579D01*
X1012682Y-37779579D02*
X1022205Y-37817674D01*
X1022205Y-37817674D02*
X1022205Y-37865293D01*
X1022205Y-37865293D02*
X1012682Y-37903389D01*
X1012682Y-37903389D02*
X1003158Y-37922436D01*
X1003158Y-37922436D02*
X993634Y-37931960D01*
X993634Y-37931960D02*
X974586Y-37941484D01*
X974586Y-37941484D02*
X955539Y-37941484D01*
X955539Y-37941484D02*
X936491Y-37931960D01*
X936491Y-37931960D02*
X926967Y-37922436D01*
X926967Y-37922436D02*
X917443Y-37903389D01*
X917443Y-37903389D02*
X907920Y-37865293D01*
X907920Y-37865293D02*
X907920Y-37817674D01*
X907920Y-37817674D02*
X917443Y-37779579D01*
X917443Y-37779579D02*
X926967Y-37760531D01*
X926967Y-37760531D02*
X936491Y-37751008D01*
X936491Y-37751008D02*
X955539Y-37741484D01*
X1107920Y-37941484D02*
X1107920Y-37808150D01*
X1107920Y-37827198D02*
X1117444Y-37817674D01*
X1117444Y-37817674D02*
X1136491Y-37808150D01*
X1136491Y-37808150D02*
X1165063Y-37808150D01*
X1165063Y-37808150D02*
X1184110Y-37817674D01*
X1184110Y-37817674D02*
X1193634Y-37836722D01*
X1193634Y-37836722D02*
X1193634Y-37941484D01*
X1193634Y-37836722D02*
X1203158Y-37817674D01*
X1203158Y-37817674D02*
X1222205Y-37808150D01*
X1222205Y-37808150D02*
X1250777Y-37808150D01*
X1250777Y-37808150D02*
X1269825Y-37817674D01*
X1269825Y-37817674D02*
X1279348Y-37836722D01*
X1279348Y-37836722D02*
X1279348Y-37941484D01*
X1374586Y-37941484D02*
X1374586Y-37808150D01*
X1374586Y-37827198D02*
X1384110Y-37817674D01*
X1384110Y-37817674D02*
X1403158Y-37808150D01*
X1403158Y-37808150D02*
X1431729Y-37808150D01*
X1431729Y-37808150D02*
X1450777Y-37817674D01*
X1450777Y-37817674D02*
X1460301Y-37836722D01*
X1460301Y-37836722D02*
X1460301Y-37941484D01*
X1460301Y-37836722D02*
X1469824Y-37817674D01*
X1469824Y-37817674D02*
X1488872Y-37808150D01*
X1488872Y-37808150D02*
X1517443Y-37808150D01*
X1517443Y-37808150D02*
X1536491Y-37817674D01*
X1536491Y-37817674D02*
X1546015Y-37836722D01*
X1546015Y-37836722D02*
X1546015Y-37941484D01*
X1936491Y-37731960D02*
X1765063Y-37989103D01*
X2193634Y-37741484D02*
X2212682Y-37741484D01*
X2212682Y-37741484D02*
X2231729Y-37751008D01*
X2231729Y-37751008D02*
X2241253Y-37760531D01*
X2241253Y-37760531D02*
X2250777Y-37779579D01*
X2250777Y-37779579D02*
X2260301Y-37817674D01*
X2260301Y-37817674D02*
X2260301Y-37865293D01*
X2260301Y-37865293D02*
X2250777Y-37903389D01*
X2250777Y-37903389D02*
X2241253Y-37922436D01*
X2241253Y-37922436D02*
X2231729Y-37931960D01*
X2231729Y-37931960D02*
X2212682Y-37941484D01*
X2212682Y-37941484D02*
X2193634Y-37941484D01*
X2193634Y-37941484D02*
X2174587Y-37931960D01*
X2174587Y-37931960D02*
X2165063Y-37922436D01*
X2165063Y-37922436D02*
X2155539Y-37903389D01*
X2155539Y-37903389D02*
X2146015Y-37865293D01*
X2146015Y-37865293D02*
X2146015Y-37817674D01*
X2146015Y-37817674D02*
X2155539Y-37779579D01*
X2155539Y-37779579D02*
X2165063Y-37760531D01*
X2165063Y-37760531D02*
X2174587Y-37751008D01*
X2174587Y-37751008D02*
X2193634Y-37741484D01*
X2346015Y-37922436D02*
X2355539Y-37931960D01*
X2355539Y-37931960D02*
X2346015Y-37941484D01*
X2346015Y-37941484D02*
X2336491Y-37931960D01*
X2336491Y-37931960D02*
X2346015Y-37922436D01*
X2346015Y-37922436D02*
X2346015Y-37941484D01*
X2479348Y-37741484D02*
X2498396Y-37741484D01*
X2498396Y-37741484D02*
X2517444Y-37751008D01*
X2517444Y-37751008D02*
X2526968Y-37760531D01*
X2526968Y-37760531D02*
X2536491Y-37779579D01*
X2536491Y-37779579D02*
X2546015Y-37817674D01*
X2546015Y-37817674D02*
X2546015Y-37865293D01*
X2546015Y-37865293D02*
X2536491Y-37903389D01*
X2536491Y-37903389D02*
X2526968Y-37922436D01*
X2526968Y-37922436D02*
X2517444Y-37931960D01*
X2517444Y-37931960D02*
X2498396Y-37941484D01*
X2498396Y-37941484D02*
X2479348Y-37941484D01*
X2479348Y-37941484D02*
X2460301Y-37931960D01*
X2460301Y-37931960D02*
X2450777Y-37922436D01*
X2450777Y-37922436D02*
X2441253Y-37903389D01*
X2441253Y-37903389D02*
X2431729Y-37865293D01*
X2431729Y-37865293D02*
X2431729Y-37817674D01*
X2431729Y-37817674D02*
X2441253Y-37779579D01*
X2441253Y-37779579D02*
X2450777Y-37760531D01*
X2450777Y-37760531D02*
X2460301Y-37751008D01*
X2460301Y-37751008D02*
X2479348Y-37741484D01*
X2736491Y-37941484D02*
X2622206Y-37941484D01*
X2679348Y-37941484D02*
X2679348Y-37741484D01*
X2679348Y-37741484D02*
X2660301Y-37770055D01*
X2660301Y-37770055D02*
X2641253Y-37789103D01*
X2641253Y-37789103D02*
X2622206Y-37798627D01*
X2917444Y-37741484D02*
X2822206Y-37741484D01*
X2822206Y-37741484D02*
X2812682Y-37836722D01*
X2812682Y-37836722D02*
X2822206Y-37827198D01*
X2822206Y-37827198D02*
X2841253Y-37817674D01*
X2841253Y-37817674D02*
X2888872Y-37817674D01*
X2888872Y-37817674D02*
X2907920Y-37827198D01*
X2907920Y-37827198D02*
X2917444Y-37836722D01*
X2917444Y-37836722D02*
X2926967Y-37855770D01*
X2926967Y-37855770D02*
X2926967Y-37903389D01*
X2926967Y-37903389D02*
X2917444Y-37922436D01*
X2917444Y-37922436D02*
X2907920Y-37931960D01*
X2907920Y-37931960D02*
X2888872Y-37941484D01*
X2888872Y-37941484D02*
X2841253Y-37941484D01*
X2841253Y-37941484D02*
X2822206Y-37931960D01*
X2822206Y-37931960D02*
X2812682Y-37922436D01*
X2993634Y-37741484D02*
X3126967Y-37741484D01*
X3126967Y-37741484D02*
X3041253Y-37941484D01*
X3193634Y-37741484D02*
X3193634Y-37779579D01*
X3269825Y-37741484D02*
X3269825Y-37779579D01*
X3565063Y-38017674D02*
X3555539Y-38008150D01*
X3555539Y-38008150D02*
X3536491Y-37979579D01*
X3536491Y-37979579D02*
X3526968Y-37960531D01*
X3526968Y-37960531D02*
X3517444Y-37931960D01*
X3517444Y-37931960D02*
X3507920Y-37884341D01*
X3507920Y-37884341D02*
X3507920Y-37846246D01*
X3507920Y-37846246D02*
X3517444Y-37798627D01*
X3517444Y-37798627D02*
X3526968Y-37770055D01*
X3526968Y-37770055D02*
X3536491Y-37751008D01*
X3536491Y-37751008D02*
X3555539Y-37722436D01*
X3555539Y-37722436D02*
X3565063Y-37712912D01*
X3736491Y-37741484D02*
X3641253Y-37741484D01*
X3641253Y-37741484D02*
X3631729Y-37836722D01*
X3631729Y-37836722D02*
X3641253Y-37827198D01*
X3641253Y-37827198D02*
X3660301Y-37817674D01*
X3660301Y-37817674D02*
X3707920Y-37817674D01*
X3707920Y-37817674D02*
X3726968Y-37827198D01*
X3726968Y-37827198D02*
X3736491Y-37836722D01*
X3736491Y-37836722D02*
X3746015Y-37855770D01*
X3746015Y-37855770D02*
X3746015Y-37903389D01*
X3746015Y-37903389D02*
X3736491Y-37922436D01*
X3736491Y-37922436D02*
X3726968Y-37931960D01*
X3726968Y-37931960D02*
X3707920Y-37941484D01*
X3707920Y-37941484D02*
X3660301Y-37941484D01*
X3660301Y-37941484D02*
X3641253Y-37931960D01*
X3641253Y-37931960D02*
X3631729Y-37922436D01*
X3822206Y-37760531D02*
X3831729Y-37751008D01*
X3831729Y-37751008D02*
X3850777Y-37741484D01*
X3850777Y-37741484D02*
X3898396Y-37741484D01*
X3898396Y-37741484D02*
X3917444Y-37751008D01*
X3917444Y-37751008D02*
X3926968Y-37760531D01*
X3926968Y-37760531D02*
X3936491Y-37779579D01*
X3936491Y-37779579D02*
X3936491Y-37798627D01*
X3936491Y-37798627D02*
X3926968Y-37827198D01*
X3926968Y-37827198D02*
X3812682Y-37941484D01*
X3812682Y-37941484D02*
X3936491Y-37941484D01*
X4174587Y-37941484D02*
X4174587Y-37741484D01*
X4260301Y-37941484D02*
X4260301Y-37836722D01*
X4260301Y-37836722D02*
X4250777Y-37817674D01*
X4250777Y-37817674D02*
X4231730Y-37808150D01*
X4231730Y-37808150D02*
X4203158Y-37808150D01*
X4203158Y-37808150D02*
X4184110Y-37817674D01*
X4184110Y-37817674D02*
X4174587Y-37827198D01*
X4384111Y-37941484D02*
X4365063Y-37931960D01*
X4365063Y-37931960D02*
X4355539Y-37922436D01*
X4355539Y-37922436D02*
X4346015Y-37903389D01*
X4346015Y-37903389D02*
X4346015Y-37846246D01*
X4346015Y-37846246D02*
X4355539Y-37827198D01*
X4355539Y-37827198D02*
X4365063Y-37817674D01*
X4365063Y-37817674D02*
X4384111Y-37808150D01*
X4384111Y-37808150D02*
X4412682Y-37808150D01*
X4412682Y-37808150D02*
X4431730Y-37817674D01*
X4431730Y-37817674D02*
X4441253Y-37827198D01*
X4441253Y-37827198D02*
X4450777Y-37846246D01*
X4450777Y-37846246D02*
X4450777Y-37903389D01*
X4450777Y-37903389D02*
X4441253Y-37922436D01*
X4441253Y-37922436D02*
X4431730Y-37931960D01*
X4431730Y-37931960D02*
X4412682Y-37941484D01*
X4412682Y-37941484D02*
X4384111Y-37941484D01*
X4565063Y-37941484D02*
X4546015Y-37931960D01*
X4546015Y-37931960D02*
X4536492Y-37912912D01*
X4536492Y-37912912D02*
X4536492Y-37741484D01*
X4717444Y-37931960D02*
X4698396Y-37941484D01*
X4698396Y-37941484D02*
X4660301Y-37941484D01*
X4660301Y-37941484D02*
X4641253Y-37931960D01*
X4641253Y-37931960D02*
X4631730Y-37912912D01*
X4631730Y-37912912D02*
X4631730Y-37836722D01*
X4631730Y-37836722D02*
X4641253Y-37817674D01*
X4641253Y-37817674D02*
X4660301Y-37808150D01*
X4660301Y-37808150D02*
X4698396Y-37808150D01*
X4698396Y-37808150D02*
X4717444Y-37817674D01*
X4717444Y-37817674D02*
X4726968Y-37836722D01*
X4726968Y-37836722D02*
X4726968Y-37855770D01*
X4726968Y-37855770D02*
X4631730Y-37874817D01*
X4803158Y-37931960D02*
X4822206Y-37941484D01*
X4822206Y-37941484D02*
X4860301Y-37941484D01*
X4860301Y-37941484D02*
X4879349Y-37931960D01*
X4879349Y-37931960D02*
X4888873Y-37912912D01*
X4888873Y-37912912D02*
X4888873Y-37903389D01*
X4888873Y-37903389D02*
X4879349Y-37884341D01*
X4879349Y-37884341D02*
X4860301Y-37874817D01*
X4860301Y-37874817D02*
X4831730Y-37874817D01*
X4831730Y-37874817D02*
X4812682Y-37865293D01*
X4812682Y-37865293D02*
X4803158Y-37846246D01*
X4803158Y-37846246D02*
X4803158Y-37836722D01*
X4803158Y-37836722D02*
X4812682Y-37817674D01*
X4812682Y-37817674D02*
X4831730Y-37808150D01*
X4831730Y-37808150D02*
X4860301Y-37808150D01*
X4860301Y-37808150D02*
X4879349Y-37817674D01*
X4955539Y-38017674D02*
X4965063Y-38008150D01*
X4965063Y-38008150D02*
X4984111Y-37979579D01*
X4984111Y-37979579D02*
X4993634Y-37960531D01*
X4993634Y-37960531D02*
X5003158Y-37931960D01*
X5003158Y-37931960D02*
X5012682Y-37884341D01*
X5012682Y-37884341D02*
X5012682Y-37846246D01*
X5012682Y-37846246D02*
X5003158Y-37798627D01*
X5003158Y-37798627D02*
X4993634Y-37770055D01*
X4993634Y-37770055D02*
X4984111Y-37751008D01*
X4984111Y-37751008D02*
X4965063Y-37722436D01*
X4965063Y-37722436D02*
X4955539Y-37712912D01*
D11*
X-10000Y-38114000D02*
G75*
G02*
X-110000Y-38114000I-50000J0D01*
G01*
X-110000Y-38114000D02*
G75*
G02*
X-10000Y-38114000I50000J0D01*
G01*
D10*
X355539Y-38205484D02*
X241253Y-38205484D01*
X298396Y-38205484D02*
X298396Y-38005484D01*
X298396Y-38005484D02*
X279348Y-38034055D01*
X279348Y-38034055D02*
X260301Y-38053103D01*
X260301Y-38053103D02*
X241253Y-38062627D01*
X441253Y-38186436D02*
X450777Y-38195960D01*
X450777Y-38195960D02*
X441253Y-38205484D01*
X441253Y-38205484D02*
X431729Y-38195960D01*
X431729Y-38195960D02*
X441253Y-38186436D01*
X441253Y-38186436D02*
X441253Y-38205484D01*
X574586Y-38005484D02*
X593634Y-38005484D01*
X593634Y-38005484D02*
X612682Y-38015008D01*
X612682Y-38015008D02*
X622205Y-38024531D01*
X622205Y-38024531D02*
X631729Y-38043579D01*
X631729Y-38043579D02*
X641253Y-38081674D01*
X641253Y-38081674D02*
X641253Y-38129293D01*
X641253Y-38129293D02*
X631729Y-38167389D01*
X631729Y-38167389D02*
X622205Y-38186436D01*
X622205Y-38186436D02*
X612682Y-38195960D01*
X612682Y-38195960D02*
X593634Y-38205484D01*
X593634Y-38205484D02*
X574586Y-38205484D01*
X574586Y-38205484D02*
X555539Y-38195960D01*
X555539Y-38195960D02*
X546015Y-38186436D01*
X546015Y-38186436D02*
X536491Y-38167389D01*
X536491Y-38167389D02*
X526967Y-38129293D01*
X526967Y-38129293D02*
X526967Y-38081674D01*
X526967Y-38081674D02*
X536491Y-38043579D01*
X536491Y-38043579D02*
X546015Y-38024531D01*
X546015Y-38024531D02*
X555539Y-38015008D01*
X555539Y-38015008D02*
X574586Y-38005484D01*
X765062Y-38005484D02*
X784110Y-38005484D01*
X784110Y-38005484D02*
X803158Y-38015008D01*
X803158Y-38015008D02*
X812682Y-38024531D01*
X812682Y-38024531D02*
X822205Y-38043579D01*
X822205Y-38043579D02*
X831729Y-38081674D01*
X831729Y-38081674D02*
X831729Y-38129293D01*
X831729Y-38129293D02*
X822205Y-38167389D01*
X822205Y-38167389D02*
X812682Y-38186436D01*
X812682Y-38186436D02*
X803158Y-38195960D01*
X803158Y-38195960D02*
X784110Y-38205484D01*
X784110Y-38205484D02*
X765062Y-38205484D01*
X765062Y-38205484D02*
X746015Y-38195960D01*
X746015Y-38195960D02*
X736491Y-38186436D01*
X736491Y-38186436D02*
X726967Y-38167389D01*
X726967Y-38167389D02*
X717443Y-38129293D01*
X717443Y-38129293D02*
X717443Y-38081674D01*
X717443Y-38081674D02*
X726967Y-38043579D01*
X726967Y-38043579D02*
X736491Y-38024531D01*
X736491Y-38024531D02*
X746015Y-38015008D01*
X746015Y-38015008D02*
X765062Y-38005484D01*
X955539Y-38005484D02*
X974586Y-38005484D01*
X974586Y-38005484D02*
X993634Y-38015008D01*
X993634Y-38015008D02*
X1003158Y-38024531D01*
X1003158Y-38024531D02*
X1012682Y-38043579D01*
X1012682Y-38043579D02*
X1022205Y-38081674D01*
X1022205Y-38081674D02*
X1022205Y-38129293D01*
X1022205Y-38129293D02*
X1012682Y-38167389D01*
X1012682Y-38167389D02*
X1003158Y-38186436D01*
X1003158Y-38186436D02*
X993634Y-38195960D01*
X993634Y-38195960D02*
X974586Y-38205484D01*
X974586Y-38205484D02*
X955539Y-38205484D01*
X955539Y-38205484D02*
X936491Y-38195960D01*
X936491Y-38195960D02*
X926967Y-38186436D01*
X926967Y-38186436D02*
X917443Y-38167389D01*
X917443Y-38167389D02*
X907920Y-38129293D01*
X907920Y-38129293D02*
X907920Y-38081674D01*
X907920Y-38081674D02*
X917443Y-38043579D01*
X917443Y-38043579D02*
X926967Y-38024531D01*
X926967Y-38024531D02*
X936491Y-38015008D01*
X936491Y-38015008D02*
X955539Y-38005484D01*
X1107920Y-38205484D02*
X1107920Y-38072150D01*
X1107920Y-38091198D02*
X1117444Y-38081674D01*
X1117444Y-38081674D02*
X1136491Y-38072150D01*
X1136491Y-38072150D02*
X1165063Y-38072150D01*
X1165063Y-38072150D02*
X1184110Y-38081674D01*
X1184110Y-38081674D02*
X1193634Y-38100722D01*
X1193634Y-38100722D02*
X1193634Y-38205484D01*
X1193634Y-38100722D02*
X1203158Y-38081674D01*
X1203158Y-38081674D02*
X1222205Y-38072150D01*
X1222205Y-38072150D02*
X1250777Y-38072150D01*
X1250777Y-38072150D02*
X1269825Y-38081674D01*
X1269825Y-38081674D02*
X1279348Y-38100722D01*
X1279348Y-38100722D02*
X1279348Y-38205484D01*
X1374586Y-38205484D02*
X1374586Y-38072150D01*
X1374586Y-38091198D02*
X1384110Y-38081674D01*
X1384110Y-38081674D02*
X1403158Y-38072150D01*
X1403158Y-38072150D02*
X1431729Y-38072150D01*
X1431729Y-38072150D02*
X1450777Y-38081674D01*
X1450777Y-38081674D02*
X1460301Y-38100722D01*
X1460301Y-38100722D02*
X1460301Y-38205484D01*
X1460301Y-38100722D02*
X1469824Y-38081674D01*
X1469824Y-38081674D02*
X1488872Y-38072150D01*
X1488872Y-38072150D02*
X1517443Y-38072150D01*
X1517443Y-38072150D02*
X1536491Y-38081674D01*
X1536491Y-38081674D02*
X1546015Y-38100722D01*
X1546015Y-38100722D02*
X1546015Y-38205484D01*
X1936491Y-37995960D02*
X1765063Y-38253103D01*
X2193634Y-38005484D02*
X2212682Y-38005484D01*
X2212682Y-38005484D02*
X2231729Y-38015008D01*
X2231729Y-38015008D02*
X2241253Y-38024531D01*
X2241253Y-38024531D02*
X2250777Y-38043579D01*
X2250777Y-38043579D02*
X2260301Y-38081674D01*
X2260301Y-38081674D02*
X2260301Y-38129293D01*
X2260301Y-38129293D02*
X2250777Y-38167389D01*
X2250777Y-38167389D02*
X2241253Y-38186436D01*
X2241253Y-38186436D02*
X2231729Y-38195960D01*
X2231729Y-38195960D02*
X2212682Y-38205484D01*
X2212682Y-38205484D02*
X2193634Y-38205484D01*
X2193634Y-38205484D02*
X2174587Y-38195960D01*
X2174587Y-38195960D02*
X2165063Y-38186436D01*
X2165063Y-38186436D02*
X2155539Y-38167389D01*
X2155539Y-38167389D02*
X2146015Y-38129293D01*
X2146015Y-38129293D02*
X2146015Y-38081674D01*
X2146015Y-38081674D02*
X2155539Y-38043579D01*
X2155539Y-38043579D02*
X2165063Y-38024531D01*
X2165063Y-38024531D02*
X2174587Y-38015008D01*
X2174587Y-38015008D02*
X2193634Y-38005484D01*
X2346015Y-38186436D02*
X2355539Y-38195960D01*
X2355539Y-38195960D02*
X2346015Y-38205484D01*
X2346015Y-38205484D02*
X2336491Y-38195960D01*
X2336491Y-38195960D02*
X2346015Y-38186436D01*
X2346015Y-38186436D02*
X2346015Y-38205484D01*
X2479348Y-38005484D02*
X2498396Y-38005484D01*
X2498396Y-38005484D02*
X2517444Y-38015008D01*
X2517444Y-38015008D02*
X2526968Y-38024531D01*
X2526968Y-38024531D02*
X2536491Y-38043579D01*
X2536491Y-38043579D02*
X2546015Y-38081674D01*
X2546015Y-38081674D02*
X2546015Y-38129293D01*
X2546015Y-38129293D02*
X2536491Y-38167389D01*
X2536491Y-38167389D02*
X2526968Y-38186436D01*
X2526968Y-38186436D02*
X2517444Y-38195960D01*
X2517444Y-38195960D02*
X2498396Y-38205484D01*
X2498396Y-38205484D02*
X2479348Y-38205484D01*
X2479348Y-38205484D02*
X2460301Y-38195960D01*
X2460301Y-38195960D02*
X2450777Y-38186436D01*
X2450777Y-38186436D02*
X2441253Y-38167389D01*
X2441253Y-38167389D02*
X2431729Y-38129293D01*
X2431729Y-38129293D02*
X2431729Y-38081674D01*
X2431729Y-38081674D02*
X2441253Y-38043579D01*
X2441253Y-38043579D02*
X2450777Y-38024531D01*
X2450777Y-38024531D02*
X2460301Y-38015008D01*
X2460301Y-38015008D02*
X2479348Y-38005484D01*
X2612682Y-38005484D02*
X2736491Y-38005484D01*
X2736491Y-38005484D02*
X2669825Y-38081674D01*
X2669825Y-38081674D02*
X2698396Y-38081674D01*
X2698396Y-38081674D02*
X2717444Y-38091198D01*
X2717444Y-38091198D02*
X2726968Y-38100722D01*
X2726968Y-38100722D02*
X2736491Y-38119770D01*
X2736491Y-38119770D02*
X2736491Y-38167389D01*
X2736491Y-38167389D02*
X2726968Y-38186436D01*
X2726968Y-38186436D02*
X2717444Y-38195960D01*
X2717444Y-38195960D02*
X2698396Y-38205484D01*
X2698396Y-38205484D02*
X2641253Y-38205484D01*
X2641253Y-38205484D02*
X2622206Y-38195960D01*
X2622206Y-38195960D02*
X2612682Y-38186436D01*
X2831729Y-38205484D02*
X2869825Y-38205484D01*
X2869825Y-38205484D02*
X2888872Y-38195960D01*
X2888872Y-38195960D02*
X2898396Y-38186436D01*
X2898396Y-38186436D02*
X2917444Y-38157865D01*
X2917444Y-38157865D02*
X2926967Y-38119770D01*
X2926967Y-38119770D02*
X2926967Y-38043579D01*
X2926967Y-38043579D02*
X2917444Y-38024531D01*
X2917444Y-38024531D02*
X2907920Y-38015008D01*
X2907920Y-38015008D02*
X2888872Y-38005484D01*
X2888872Y-38005484D02*
X2850777Y-38005484D01*
X2850777Y-38005484D02*
X2831729Y-38015008D01*
X2831729Y-38015008D02*
X2822206Y-38024531D01*
X2822206Y-38024531D02*
X2812682Y-38043579D01*
X2812682Y-38043579D02*
X2812682Y-38091198D01*
X2812682Y-38091198D02*
X2822206Y-38110246D01*
X2822206Y-38110246D02*
X2831729Y-38119770D01*
X2831729Y-38119770D02*
X2850777Y-38129293D01*
X2850777Y-38129293D02*
X2888872Y-38129293D01*
X2888872Y-38129293D02*
X2907920Y-38119770D01*
X2907920Y-38119770D02*
X2917444Y-38110246D01*
X2917444Y-38110246D02*
X2926967Y-38091198D01*
X3098396Y-38072150D02*
X3098396Y-38205484D01*
X3050777Y-37995960D02*
X3003158Y-38138817D01*
X3003158Y-38138817D02*
X3126967Y-38138817D01*
X3193634Y-38005484D02*
X3193634Y-38043579D01*
X3269825Y-38005484D02*
X3269825Y-38043579D01*
X3565063Y-38281674D02*
X3555539Y-38272150D01*
X3555539Y-38272150D02*
X3536491Y-38243579D01*
X3536491Y-38243579D02*
X3526968Y-38224531D01*
X3526968Y-38224531D02*
X3517444Y-38195960D01*
X3517444Y-38195960D02*
X3507920Y-38148341D01*
X3507920Y-38148341D02*
X3507920Y-38110246D01*
X3507920Y-38110246D02*
X3517444Y-38062627D01*
X3517444Y-38062627D02*
X3526968Y-38034055D01*
X3526968Y-38034055D02*
X3536491Y-38015008D01*
X3536491Y-38015008D02*
X3555539Y-37986436D01*
X3555539Y-37986436D02*
X3565063Y-37976912D01*
X3622206Y-38005484D02*
X3746015Y-38005484D01*
X3746015Y-38005484D02*
X3679348Y-38081674D01*
X3679348Y-38081674D02*
X3707920Y-38081674D01*
X3707920Y-38081674D02*
X3726968Y-38091198D01*
X3726968Y-38091198D02*
X3736491Y-38100722D01*
X3736491Y-38100722D02*
X3746015Y-38119770D01*
X3746015Y-38119770D02*
X3746015Y-38167389D01*
X3746015Y-38167389D02*
X3736491Y-38186436D01*
X3736491Y-38186436D02*
X3726968Y-38195960D01*
X3726968Y-38195960D02*
X3707920Y-38205484D01*
X3707920Y-38205484D02*
X3650777Y-38205484D01*
X3650777Y-38205484D02*
X3631729Y-38195960D01*
X3631729Y-38195960D02*
X3622206Y-38186436D01*
X3984110Y-38205484D02*
X3984110Y-38005484D01*
X4069825Y-38205484D02*
X4069825Y-38100722D01*
X4069825Y-38100722D02*
X4060301Y-38081674D01*
X4060301Y-38081674D02*
X4041253Y-38072150D01*
X4041253Y-38072150D02*
X4012682Y-38072150D01*
X4012682Y-38072150D02*
X3993634Y-38081674D01*
X3993634Y-38081674D02*
X3984110Y-38091198D01*
X4193634Y-38205484D02*
X4174587Y-38195960D01*
X4174587Y-38195960D02*
X4165063Y-38186436D01*
X4165063Y-38186436D02*
X4155539Y-38167389D01*
X4155539Y-38167389D02*
X4155539Y-38110246D01*
X4155539Y-38110246D02*
X4165063Y-38091198D01*
X4165063Y-38091198D02*
X4174587Y-38081674D01*
X4174587Y-38081674D02*
X4193634Y-38072150D01*
X4193634Y-38072150D02*
X4222206Y-38072150D01*
X4222206Y-38072150D02*
X4241253Y-38081674D01*
X4241253Y-38081674D02*
X4250777Y-38091198D01*
X4250777Y-38091198D02*
X4260301Y-38110246D01*
X4260301Y-38110246D02*
X4260301Y-38167389D01*
X4260301Y-38167389D02*
X4250777Y-38186436D01*
X4250777Y-38186436D02*
X4241253Y-38195960D01*
X4241253Y-38195960D02*
X4222206Y-38205484D01*
X4222206Y-38205484D02*
X4193634Y-38205484D01*
X4374587Y-38205484D02*
X4355539Y-38195960D01*
X4355539Y-38195960D02*
X4346015Y-38176912D01*
X4346015Y-38176912D02*
X4346015Y-38005484D01*
X4526968Y-38195960D02*
X4507920Y-38205484D01*
X4507920Y-38205484D02*
X4469825Y-38205484D01*
X4469825Y-38205484D02*
X4450777Y-38195960D01*
X4450777Y-38195960D02*
X4441253Y-38176912D01*
X4441253Y-38176912D02*
X4441253Y-38100722D01*
X4441253Y-38100722D02*
X4450777Y-38081674D01*
X4450777Y-38081674D02*
X4469825Y-38072150D01*
X4469825Y-38072150D02*
X4507920Y-38072150D01*
X4507920Y-38072150D02*
X4526968Y-38081674D01*
X4526968Y-38081674D02*
X4536492Y-38100722D01*
X4536492Y-38100722D02*
X4536492Y-38119770D01*
X4536492Y-38119770D02*
X4441253Y-38138817D01*
X4612682Y-38195960D02*
X4631730Y-38205484D01*
X4631730Y-38205484D02*
X4669825Y-38205484D01*
X4669825Y-38205484D02*
X4688873Y-38195960D01*
X4688873Y-38195960D02*
X4698396Y-38176912D01*
X4698396Y-38176912D02*
X4698396Y-38167389D01*
X4698396Y-38167389D02*
X4688873Y-38148341D01*
X4688873Y-38148341D02*
X4669825Y-38138817D01*
X4669825Y-38138817D02*
X4641253Y-38138817D01*
X4641253Y-38138817D02*
X4622206Y-38129293D01*
X4622206Y-38129293D02*
X4612682Y-38110246D01*
X4612682Y-38110246D02*
X4612682Y-38100722D01*
X4612682Y-38100722D02*
X4622206Y-38081674D01*
X4622206Y-38081674D02*
X4641253Y-38072150D01*
X4641253Y-38072150D02*
X4669825Y-38072150D01*
X4669825Y-38072150D02*
X4688873Y-38081674D01*
X4765063Y-38281674D02*
X4774587Y-38272150D01*
X4774587Y-38272150D02*
X4793634Y-38243579D01*
X4793634Y-38243579D02*
X4803158Y-38224531D01*
X4803158Y-38224531D02*
X4812682Y-38195960D01*
X4812682Y-38195960D02*
X4822206Y-38148341D01*
X4822206Y-38148341D02*
X4822206Y-38110246D01*
X4822206Y-38110246D02*
X4812682Y-38062627D01*
X4812682Y-38062627D02*
X4803158Y-38034055D01*
X4803158Y-38034055D02*
X4793634Y-38015008D01*
X4793634Y-38015008D02*
X4774587Y-37986436D01*
X4774587Y-37986436D02*
X4765063Y-37976912D01*
D12*
X-80000Y-38308000D02*
X-80000Y-38448000D01*
X-150000Y-38378000D02*
X-10000Y-38378000D01*
D10*
X355539Y-38469484D02*
X241253Y-38469484D01*
X298396Y-38469484D02*
X298396Y-38269484D01*
X298396Y-38269484D02*
X279348Y-38298055D01*
X279348Y-38298055D02*
X260301Y-38317103D01*
X260301Y-38317103D02*
X241253Y-38326627D01*
X441253Y-38450436D02*
X450777Y-38459960D01*
X450777Y-38459960D02*
X441253Y-38469484D01*
X441253Y-38469484D02*
X431729Y-38459960D01*
X431729Y-38459960D02*
X441253Y-38450436D01*
X441253Y-38450436D02*
X441253Y-38469484D01*
X622205Y-38336150D02*
X622205Y-38469484D01*
X574586Y-38259960D02*
X526967Y-38402817D01*
X526967Y-38402817D02*
X650777Y-38402817D01*
X765062Y-38269484D02*
X784110Y-38269484D01*
X784110Y-38269484D02*
X803158Y-38279008D01*
X803158Y-38279008D02*
X812682Y-38288531D01*
X812682Y-38288531D02*
X822205Y-38307579D01*
X822205Y-38307579D02*
X831729Y-38345674D01*
X831729Y-38345674D02*
X831729Y-38393293D01*
X831729Y-38393293D02*
X822205Y-38431389D01*
X822205Y-38431389D02*
X812682Y-38450436D01*
X812682Y-38450436D02*
X803158Y-38459960D01*
X803158Y-38459960D02*
X784110Y-38469484D01*
X784110Y-38469484D02*
X765062Y-38469484D01*
X765062Y-38469484D02*
X746015Y-38459960D01*
X746015Y-38459960D02*
X736491Y-38450436D01*
X736491Y-38450436D02*
X726967Y-38431389D01*
X726967Y-38431389D02*
X717443Y-38393293D01*
X717443Y-38393293D02*
X717443Y-38345674D01*
X717443Y-38345674D02*
X726967Y-38307579D01*
X726967Y-38307579D02*
X736491Y-38288531D01*
X736491Y-38288531D02*
X746015Y-38279008D01*
X746015Y-38279008D02*
X765062Y-38269484D01*
X955539Y-38269484D02*
X974586Y-38269484D01*
X974586Y-38269484D02*
X993634Y-38279008D01*
X993634Y-38279008D02*
X1003158Y-38288531D01*
X1003158Y-38288531D02*
X1012682Y-38307579D01*
X1012682Y-38307579D02*
X1022205Y-38345674D01*
X1022205Y-38345674D02*
X1022205Y-38393293D01*
X1022205Y-38393293D02*
X1012682Y-38431389D01*
X1012682Y-38431389D02*
X1003158Y-38450436D01*
X1003158Y-38450436D02*
X993634Y-38459960D01*
X993634Y-38459960D02*
X974586Y-38469484D01*
X974586Y-38469484D02*
X955539Y-38469484D01*
X955539Y-38469484D02*
X936491Y-38459960D01*
X936491Y-38459960D02*
X926967Y-38450436D01*
X926967Y-38450436D02*
X917443Y-38431389D01*
X917443Y-38431389D02*
X907920Y-38393293D01*
X907920Y-38393293D02*
X907920Y-38345674D01*
X907920Y-38345674D02*
X917443Y-38307579D01*
X917443Y-38307579D02*
X926967Y-38288531D01*
X926967Y-38288531D02*
X936491Y-38279008D01*
X936491Y-38279008D02*
X955539Y-38269484D01*
X1107920Y-38469484D02*
X1107920Y-38336150D01*
X1107920Y-38355198D02*
X1117444Y-38345674D01*
X1117444Y-38345674D02*
X1136491Y-38336150D01*
X1136491Y-38336150D02*
X1165063Y-38336150D01*
X1165063Y-38336150D02*
X1184110Y-38345674D01*
X1184110Y-38345674D02*
X1193634Y-38364722D01*
X1193634Y-38364722D02*
X1193634Y-38469484D01*
X1193634Y-38364722D02*
X1203158Y-38345674D01*
X1203158Y-38345674D02*
X1222205Y-38336150D01*
X1222205Y-38336150D02*
X1250777Y-38336150D01*
X1250777Y-38336150D02*
X1269825Y-38345674D01*
X1269825Y-38345674D02*
X1279348Y-38364722D01*
X1279348Y-38364722D02*
X1279348Y-38469484D01*
X1374586Y-38469484D02*
X1374586Y-38336150D01*
X1374586Y-38355198D02*
X1384110Y-38345674D01*
X1384110Y-38345674D02*
X1403158Y-38336150D01*
X1403158Y-38336150D02*
X1431729Y-38336150D01*
X1431729Y-38336150D02*
X1450777Y-38345674D01*
X1450777Y-38345674D02*
X1460301Y-38364722D01*
X1460301Y-38364722D02*
X1460301Y-38469484D01*
X1460301Y-38364722D02*
X1469824Y-38345674D01*
X1469824Y-38345674D02*
X1488872Y-38336150D01*
X1488872Y-38336150D02*
X1517443Y-38336150D01*
X1517443Y-38336150D02*
X1536491Y-38345674D01*
X1536491Y-38345674D02*
X1546015Y-38364722D01*
X1546015Y-38364722D02*
X1546015Y-38469484D01*
X1936491Y-38259960D02*
X1765063Y-38517103D01*
X2193634Y-38269484D02*
X2212682Y-38269484D01*
X2212682Y-38269484D02*
X2231729Y-38279008D01*
X2231729Y-38279008D02*
X2241253Y-38288531D01*
X2241253Y-38288531D02*
X2250777Y-38307579D01*
X2250777Y-38307579D02*
X2260301Y-38345674D01*
X2260301Y-38345674D02*
X2260301Y-38393293D01*
X2260301Y-38393293D02*
X2250777Y-38431389D01*
X2250777Y-38431389D02*
X2241253Y-38450436D01*
X2241253Y-38450436D02*
X2231729Y-38459960D01*
X2231729Y-38459960D02*
X2212682Y-38469484D01*
X2212682Y-38469484D02*
X2193634Y-38469484D01*
X2193634Y-38469484D02*
X2174587Y-38459960D01*
X2174587Y-38459960D02*
X2165063Y-38450436D01*
X2165063Y-38450436D02*
X2155539Y-38431389D01*
X2155539Y-38431389D02*
X2146015Y-38393293D01*
X2146015Y-38393293D02*
X2146015Y-38345674D01*
X2146015Y-38345674D02*
X2155539Y-38307579D01*
X2155539Y-38307579D02*
X2165063Y-38288531D01*
X2165063Y-38288531D02*
X2174587Y-38279008D01*
X2174587Y-38279008D02*
X2193634Y-38269484D01*
X2346015Y-38450436D02*
X2355539Y-38459960D01*
X2355539Y-38459960D02*
X2346015Y-38469484D01*
X2346015Y-38469484D02*
X2336491Y-38459960D01*
X2336491Y-38459960D02*
X2346015Y-38450436D01*
X2346015Y-38450436D02*
X2346015Y-38469484D01*
X2479348Y-38269484D02*
X2498396Y-38269484D01*
X2498396Y-38269484D02*
X2517444Y-38279008D01*
X2517444Y-38279008D02*
X2526968Y-38288531D01*
X2526968Y-38288531D02*
X2536491Y-38307579D01*
X2536491Y-38307579D02*
X2546015Y-38345674D01*
X2546015Y-38345674D02*
X2546015Y-38393293D01*
X2546015Y-38393293D02*
X2536491Y-38431389D01*
X2536491Y-38431389D02*
X2526968Y-38450436D01*
X2526968Y-38450436D02*
X2517444Y-38459960D01*
X2517444Y-38459960D02*
X2498396Y-38469484D01*
X2498396Y-38469484D02*
X2479348Y-38469484D01*
X2479348Y-38469484D02*
X2460301Y-38459960D01*
X2460301Y-38459960D02*
X2450777Y-38450436D01*
X2450777Y-38450436D02*
X2441253Y-38431389D01*
X2441253Y-38431389D02*
X2431729Y-38393293D01*
X2431729Y-38393293D02*
X2431729Y-38345674D01*
X2431729Y-38345674D02*
X2441253Y-38307579D01*
X2441253Y-38307579D02*
X2450777Y-38288531D01*
X2450777Y-38288531D02*
X2460301Y-38279008D01*
X2460301Y-38279008D02*
X2479348Y-38269484D01*
X2726968Y-38269484D02*
X2631729Y-38269484D01*
X2631729Y-38269484D02*
X2622206Y-38364722D01*
X2622206Y-38364722D02*
X2631729Y-38355198D01*
X2631729Y-38355198D02*
X2650777Y-38345674D01*
X2650777Y-38345674D02*
X2698396Y-38345674D01*
X2698396Y-38345674D02*
X2717444Y-38355198D01*
X2717444Y-38355198D02*
X2726968Y-38364722D01*
X2726968Y-38364722D02*
X2736491Y-38383770D01*
X2736491Y-38383770D02*
X2736491Y-38431389D01*
X2736491Y-38431389D02*
X2726968Y-38450436D01*
X2726968Y-38450436D02*
X2717444Y-38459960D01*
X2717444Y-38459960D02*
X2698396Y-38469484D01*
X2698396Y-38469484D02*
X2650777Y-38469484D01*
X2650777Y-38469484D02*
X2631729Y-38459960D01*
X2631729Y-38459960D02*
X2622206Y-38450436D01*
X2917444Y-38269484D02*
X2822206Y-38269484D01*
X2822206Y-38269484D02*
X2812682Y-38364722D01*
X2812682Y-38364722D02*
X2822206Y-38355198D01*
X2822206Y-38355198D02*
X2841253Y-38345674D01*
X2841253Y-38345674D02*
X2888872Y-38345674D01*
X2888872Y-38345674D02*
X2907920Y-38355198D01*
X2907920Y-38355198D02*
X2917444Y-38364722D01*
X2917444Y-38364722D02*
X2926967Y-38383770D01*
X2926967Y-38383770D02*
X2926967Y-38431389D01*
X2926967Y-38431389D02*
X2917444Y-38450436D01*
X2917444Y-38450436D02*
X2907920Y-38459960D01*
X2907920Y-38459960D02*
X2888872Y-38469484D01*
X2888872Y-38469484D02*
X2841253Y-38469484D01*
X2841253Y-38469484D02*
X2822206Y-38459960D01*
X2822206Y-38459960D02*
X2812682Y-38450436D01*
X3117444Y-38469484D02*
X3003158Y-38469484D01*
X3060301Y-38469484D02*
X3060301Y-38269484D01*
X3060301Y-38269484D02*
X3041253Y-38298055D01*
X3041253Y-38298055D02*
X3022206Y-38317103D01*
X3022206Y-38317103D02*
X3003158Y-38326627D01*
X3193634Y-38269484D02*
X3193634Y-38307579D01*
X3269825Y-38269484D02*
X3269825Y-38307579D01*
X3565063Y-38545674D02*
X3555539Y-38536150D01*
X3555539Y-38536150D02*
X3536491Y-38507579D01*
X3536491Y-38507579D02*
X3526968Y-38488531D01*
X3526968Y-38488531D02*
X3517444Y-38459960D01*
X3517444Y-38459960D02*
X3507920Y-38412341D01*
X3507920Y-38412341D02*
X3507920Y-38374246D01*
X3507920Y-38374246D02*
X3517444Y-38326627D01*
X3517444Y-38326627D02*
X3526968Y-38298055D01*
X3526968Y-38298055D02*
X3536491Y-38279008D01*
X3536491Y-38279008D02*
X3555539Y-38250436D01*
X3555539Y-38250436D02*
X3565063Y-38240912D01*
X3726968Y-38269484D02*
X3688872Y-38269484D01*
X3688872Y-38269484D02*
X3669825Y-38279008D01*
X3669825Y-38279008D02*
X3660301Y-38288531D01*
X3660301Y-38288531D02*
X3641253Y-38317103D01*
X3641253Y-38317103D02*
X3631729Y-38355198D01*
X3631729Y-38355198D02*
X3631729Y-38431389D01*
X3631729Y-38431389D02*
X3641253Y-38450436D01*
X3641253Y-38450436D02*
X3650777Y-38459960D01*
X3650777Y-38459960D02*
X3669825Y-38469484D01*
X3669825Y-38469484D02*
X3707920Y-38469484D01*
X3707920Y-38469484D02*
X3726968Y-38459960D01*
X3726968Y-38459960D02*
X3736491Y-38450436D01*
X3736491Y-38450436D02*
X3746015Y-38431389D01*
X3746015Y-38431389D02*
X3746015Y-38383770D01*
X3746015Y-38383770D02*
X3736491Y-38364722D01*
X3736491Y-38364722D02*
X3726968Y-38355198D01*
X3726968Y-38355198D02*
X3707920Y-38345674D01*
X3707920Y-38345674D02*
X3669825Y-38345674D01*
X3669825Y-38345674D02*
X3650777Y-38355198D01*
X3650777Y-38355198D02*
X3641253Y-38364722D01*
X3641253Y-38364722D02*
X3631729Y-38383770D01*
X3984110Y-38469484D02*
X3984110Y-38269484D01*
X4069825Y-38469484D02*
X4069825Y-38364722D01*
X4069825Y-38364722D02*
X4060301Y-38345674D01*
X4060301Y-38345674D02*
X4041253Y-38336150D01*
X4041253Y-38336150D02*
X4012682Y-38336150D01*
X4012682Y-38336150D02*
X3993634Y-38345674D01*
X3993634Y-38345674D02*
X3984110Y-38355198D01*
X4193634Y-38469484D02*
X4174587Y-38459960D01*
X4174587Y-38459960D02*
X4165063Y-38450436D01*
X4165063Y-38450436D02*
X4155539Y-38431389D01*
X4155539Y-38431389D02*
X4155539Y-38374246D01*
X4155539Y-38374246D02*
X4165063Y-38355198D01*
X4165063Y-38355198D02*
X4174587Y-38345674D01*
X4174587Y-38345674D02*
X4193634Y-38336150D01*
X4193634Y-38336150D02*
X4222206Y-38336150D01*
X4222206Y-38336150D02*
X4241253Y-38345674D01*
X4241253Y-38345674D02*
X4250777Y-38355198D01*
X4250777Y-38355198D02*
X4260301Y-38374246D01*
X4260301Y-38374246D02*
X4260301Y-38431389D01*
X4260301Y-38431389D02*
X4250777Y-38450436D01*
X4250777Y-38450436D02*
X4241253Y-38459960D01*
X4241253Y-38459960D02*
X4222206Y-38469484D01*
X4222206Y-38469484D02*
X4193634Y-38469484D01*
X4374587Y-38469484D02*
X4355539Y-38459960D01*
X4355539Y-38459960D02*
X4346015Y-38440912D01*
X4346015Y-38440912D02*
X4346015Y-38269484D01*
X4526968Y-38459960D02*
X4507920Y-38469484D01*
X4507920Y-38469484D02*
X4469825Y-38469484D01*
X4469825Y-38469484D02*
X4450777Y-38459960D01*
X4450777Y-38459960D02*
X4441253Y-38440912D01*
X4441253Y-38440912D02*
X4441253Y-38364722D01*
X4441253Y-38364722D02*
X4450777Y-38345674D01*
X4450777Y-38345674D02*
X4469825Y-38336150D01*
X4469825Y-38336150D02*
X4507920Y-38336150D01*
X4507920Y-38336150D02*
X4526968Y-38345674D01*
X4526968Y-38345674D02*
X4536492Y-38364722D01*
X4536492Y-38364722D02*
X4536492Y-38383770D01*
X4536492Y-38383770D02*
X4441253Y-38402817D01*
X4612682Y-38459960D02*
X4631730Y-38469484D01*
X4631730Y-38469484D02*
X4669825Y-38469484D01*
X4669825Y-38469484D02*
X4688873Y-38459960D01*
X4688873Y-38459960D02*
X4698396Y-38440912D01*
X4698396Y-38440912D02*
X4698396Y-38431389D01*
X4698396Y-38431389D02*
X4688873Y-38412341D01*
X4688873Y-38412341D02*
X4669825Y-38402817D01*
X4669825Y-38402817D02*
X4641253Y-38402817D01*
X4641253Y-38402817D02*
X4622206Y-38393293D01*
X4622206Y-38393293D02*
X4612682Y-38374246D01*
X4612682Y-38374246D02*
X4612682Y-38364722D01*
X4612682Y-38364722D02*
X4622206Y-38345674D01*
X4622206Y-38345674D02*
X4641253Y-38336150D01*
X4641253Y-38336150D02*
X4669825Y-38336150D01*
X4669825Y-38336150D02*
X4688873Y-38345674D01*
X4765063Y-38545674D02*
X4774587Y-38536150D01*
X4774587Y-38536150D02*
X4793634Y-38507579D01*
X4793634Y-38507579D02*
X4803158Y-38488531D01*
X4803158Y-38488531D02*
X4812682Y-38459960D01*
X4812682Y-38459960D02*
X4822206Y-38412341D01*
X4822206Y-38412341D02*
X4822206Y-38374246D01*
X4822206Y-38374246D02*
X4812682Y-38326627D01*
X4812682Y-38326627D02*
X4803158Y-38298055D01*
X4803158Y-38298055D02*
X4793634Y-38279008D01*
X4793634Y-38279008D02*
X4774587Y-38250436D01*
X4774587Y-38250436D02*
X4765063Y-38240912D01*
M02*
