%TF.GenerationSoftware,KiCad,Pcbnew,9.0.9-9.0.9~ubuntu24.04.1*%
%TF.CreationDate,2026-08-22T03:08:55+00:00*%
%TF.ProjectId,MI250X_8OAM_PCBWay_Chassis_Stub,4d493235-3058-45f3-984f-414d5f504342,Rev3_8Seat_PCBWay_v1*%
%TF.SameCoordinates,Original*%
%TF.FileFunction,Copper,L12,Bot*%
%TF.FilePolarity,Positive*%
%FSLAX46Y46*%
G04 Gerber Fmt 4.6, Leading zero omitted, Abs format (unit mm)*
G04 Created by KiCad (PCBNEW 9.0.9-9.0.9~ubuntu24.04.1) date 2026-08-22 03:08:55*
%MOMM*%
%LPD*%
G01*
G04 APERTURE LIST*
G04 Aperture macros list*
%AMRoundRect*
0 Rectangle with rounded corners*
0 $1 Rounding radius*
0 $2 $3 $4 $5 $6 $7 $8 $9 X,Y pos of 4 corners*
0 Add a 4 corners polygon primitive as box body*
4,1,4,$2,$3,$4,$5,$6,$7,$8,$9,$2,$3,0*
0 Add four circle primitives for the rounded corners*
1,1,$1+$1,$2,$3*
1,1,$1+$1,$4,$5*
1,1,$1+$1,$6,$7*
1,1,$1+$1,$8,$9*
0 Add four rect primitives between the rounded corners*
20,1,$1+$1,$2,$3,$4,$5,0*
20,1,$1+$1,$4,$5,$6,$7,0*
20,1,$1+$1,$6,$7,$8,$9,0*
20,1,$1+$1,$8,$9,$2,$3,0*%
G04 Aperture macros list end*
%TA.AperFunction,WasherPad*%
%ADD10C,8.000000*%
%TD*%
%TA.AperFunction,ComponentPad*%
%ADD11RoundRect,0.600000X-0.600000X-0.600000X0.600000X-0.600000X0.600000X0.600000X-0.600000X0.600000X0*%
%TD*%
%TA.AperFunction,ComponentPad*%
%ADD12C,2.400000*%
%TD*%
%TA.AperFunction,ComponentPad*%
%ADD13R,1.800000X1.800000*%
%TD*%
%TA.AperFunction,ComponentPad*%
%ADD14C,1.800000*%
%TD*%
%TA.AperFunction,ViaPad*%
%ADD15C,0.800000*%
%TD*%
%TA.AperFunction,Conductor*%
%ADD16C,0.500000*%
%TD*%
%TA.AperFunction,Conductor*%
%ADD17C,0.400000*%
%TD*%
G04 APERTURE END LIST*
D10*
%TO.P,H24,*%
%TO.N,*%
X322500000Y-52000000D03*
%TD*%
%TO.P,H61,*%
%TO.N,*%
X232500000Y-320000000D03*
%TD*%
%TO.P,H03,*%
%TO.N,*%
X26500000Y-52000000D03*
%TD*%
%TO.P,H41,*%
%TO.N,*%
X26500000Y-320000000D03*
%TD*%
%TO.P,H73,*%
%TO.N,*%
X335500000Y-218000000D03*
%TD*%
%TO.P,H62,*%
%TO.N,*%
X322500000Y-320000000D03*
%TD*%
%TO.P,H64,*%
%TO.N,*%
X322500000Y-218000000D03*
%TD*%
%TO.P,H14,*%
%TO.N,*%
X219500000Y-52000000D03*
%TD*%
%TO.P,H51,*%
%TO.N,*%
X129500000Y-320000000D03*
%TD*%
%TO.P,H72,*%
%TO.N,*%
X425500000Y-320000000D03*
%TD*%
%TO.P,H53,*%
%TO.N,*%
X129500000Y-218000000D03*
%TD*%
%TO.P,H11,*%
%TO.N,*%
X129500000Y-154000000D03*
%TD*%
%TO.P,H12,*%
%TO.N,*%
X219500000Y-154000000D03*
%TD*%
%TO.P,H31,*%
%TO.N,*%
X335500000Y-154000000D03*
%TD*%
D11*
%TO.P,U_P12V1,1*%
%TO.N,P48V_BRICK*%
X470000000Y-348000000D03*
D12*
%TO.P,U_P12V1,2*%
%TO.N,GND*%
X475080000Y-348000000D03*
%TO.P,U_P12V1,3*%
%TO.N,P12V1*%
X462380000Y-368320000D03*
%TO.P,U_P12V1,4*%
%TO.N,N/C*%
X472540000Y-368320000D03*
%TO.P,U_P12V1,5*%
%TO.N,GND*%
X482700000Y-368320000D03*
%TO.P,U_P12V1,6*%
%TO.N,N/C*%
X482700000Y-348000000D03*
%TD*%
D10*
%TO.P,H63,*%
%TO.N,*%
X232500000Y-218000000D03*
%TD*%
%TO.P,H54,*%
%TO.N,*%
X219500000Y-218000000D03*
%TD*%
%TO.P,H43,*%
%TO.N,*%
X26500000Y-218000000D03*
%TD*%
%TO.P,H13,*%
%TO.N,*%
X129500000Y-52000000D03*
%TD*%
%TO.P,H23,*%
%TO.N,*%
X232500000Y-52000000D03*
%TD*%
%TO.P,H71,*%
%TO.N,*%
X335500000Y-320000000D03*
%TD*%
%TO.P,H34,*%
%TO.N,*%
X425500000Y-52000000D03*
%TD*%
%TO.P,H02,*%
%TO.N,*%
X116500000Y-154000000D03*
%TD*%
%TO.P,H32,*%
%TO.N,*%
X425500000Y-154000000D03*
%TD*%
%TO.P,H42,*%
%TO.N,*%
X116500000Y-320000000D03*
%TD*%
%TO.P,J_SB175,*%
%TO.N,*%
X55700000Y-362000000D03*
X84300000Y-362000000D03*
%TD*%
%TO.P,H52,*%
%TO.N,*%
X219500000Y-320000000D03*
%TD*%
%TO.P,H33,*%
%TO.N,*%
X335500000Y-52000000D03*
%TD*%
%TO.P,H01,*%
%TO.N,*%
X26500000Y-154000000D03*
%TD*%
%TO.P,H21,*%
%TO.N,*%
X232500000Y-154000000D03*
%TD*%
%TO.P,H22,*%
%TO.N,*%
X322500000Y-154000000D03*
%TD*%
%TO.P,H74,*%
%TO.N,*%
X425500000Y-218000000D03*
%TD*%
%TO.P,H04,*%
%TO.N,*%
X116500000Y-52000000D03*
%TD*%
%TO.P,H44,*%
%TO.N,*%
X116500000Y-218000000D03*
%TD*%
D13*
%TO.P,U_P3V3,1*%
%TO.N,P12V1*%
X440000000Y-366000000D03*
D14*
%TO.P,U_P3V3,2*%
%TO.N,GND*%
X442540000Y-366000000D03*
%TO.P,U_P3V3,3*%
%TO.N,P3V3*%
X445080000Y-366000000D03*
%TD*%
D15*
%TO.N,GND*%
X236000000Y-256000000D03*
X113000000Y-196000000D03*
X339000000Y-30000000D03*
X236000000Y-196000000D03*
X339000000Y-256000000D03*
X319000000Y-30000000D03*
X113000000Y-90000000D03*
X339000000Y-90000000D03*
X133000000Y-90000000D03*
X216000000Y-90000000D03*
X236000000Y-30000000D03*
X319000000Y-196000000D03*
X113000000Y-256000000D03*
X133000000Y-256000000D03*
X216000000Y-256000000D03*
X216000000Y-30000000D03*
X422000000Y-90000000D03*
X422000000Y-256000000D03*
X30000000Y-256000000D03*
X30000000Y-30000000D03*
X236000000Y-90000000D03*
X319000000Y-90000000D03*
X30000000Y-196000000D03*
X339000000Y-196000000D03*
X30000000Y-90000000D03*
X133000000Y-196000000D03*
X113000000Y-30000000D03*
X319000000Y-256000000D03*
X133000000Y-30000000D03*
X422000000Y-30000000D03*
X422000000Y-196000000D03*
X216000000Y-196000000D03*
%TO.N,P12V1*%
X346450000Y-146500000D03*
X140450000Y-312500000D03*
X15500000Y-312500000D03*
X243450000Y-146500000D03*
X37450000Y-312500000D03*
X243450000Y-312500000D03*
X37450000Y-146500000D03*
X15500000Y-146500000D03*
X140450000Y-146500000D03*
X346450000Y-312500000D03*
%TO.N,P3V3*%
X210550000Y-149500000D03*
X416550000Y-149500000D03*
X3500000Y-149500000D03*
X210550000Y-315500000D03*
X107550000Y-149500000D03*
X416550000Y-315500000D03*
X3500000Y-315500000D03*
X313550000Y-149500000D03*
X107550000Y-315500000D03*
X313550000Y-315500000D03*
%TD*%
D16*
%TO.N,P12V1*%
X346450000Y-146500000D02*
X15500000Y-146500000D01*
X140450000Y-312500000D02*
X15500000Y-312500000D01*
X243450000Y-146500000D02*
X15500000Y-146500000D01*
X346450000Y-312500000D02*
X15500000Y-312500000D01*
X140450000Y-146500000D02*
X15500000Y-146500000D01*
X37450000Y-312500000D02*
X15500000Y-312500000D01*
X37450000Y-146500000D02*
X15500000Y-146500000D01*
X243450000Y-312500000D02*
X15500000Y-312500000D01*
D17*
%TO.N,P3V3*%
X210550000Y-149500000D02*
X3500000Y-149500000D01*
X107550000Y-149500000D02*
X3500000Y-149500000D01*
X107550000Y-315500000D02*
X3500000Y-315500000D01*
X313550000Y-149500000D02*
X3500000Y-149500000D01*
X313550000Y-315500000D02*
X3500000Y-315500000D01*
X416550000Y-149500000D02*
X3500000Y-149500000D01*
X210550000Y-315500000D02*
X3500000Y-315500000D01*
X416550000Y-315500000D02*
X3500000Y-315500000D01*
%TD*%
%TA.AperFunction,Conductor*%
%TO.N,P3V3*%
G36*
X4925500Y-20019962D02*
G01*
X4980038Y-20074500D01*
X5000000Y-20149000D01*
X5000000Y-359851000D01*
X4980038Y-359925500D01*
X4925500Y-359980038D01*
X4851000Y-360000000D01*
X2149000Y-360000000D01*
X2074500Y-359980038D01*
X2019962Y-359925500D01*
X2000000Y-359851000D01*
X2000000Y-20149000D01*
X2019962Y-20074500D01*
X2074500Y-20019962D01*
X2149000Y-20000000D01*
X4851000Y-20000000D01*
X4925500Y-20019962D01*
G37*
%TD.AperFunction*%
%TD*%
M02*
